<svg xmlns="http://www.w3.org/2000/svg" width="922" height="471.358" viewBox="0 0 922 471.358">
  <g id="Grupo_28134" data-name="Grupo 28134" transform="translate(-500 -983.642)">
    <g id="Grupo_28133" data-name="Grupo 28133" transform="translate(-18 -182)">
      <g id="Grupo_28126" data-name="Grupo 28126" transform="translate(293 -5022.75)">
        <line id="Línea_142" data-name="Línea 142" x1="722.5" y1="0.25" transform="translate(325.5 6353.25)" fill="none" stroke="#ff8f00" stroke-width="3"/>
        <line id="Línea_143" data-name="Línea 143" x2="136.479" transform="translate(1047.5 6353) rotate(90)" fill="none" stroke="#ff8f00" stroke-width="3"/>
        <line id="Línea_151" data-name="Línea 151" x2="136.479" transform="translate(326 6353) rotate(90)" fill="none" stroke="#ff8f00" stroke-width="3"/>
        <line id="Línea_435" data-name="Línea 435" x2="136.479" transform="translate(566.06 6353) rotate(90)" fill="none" stroke="#ff8f00" stroke-width="3"/>
        <line id="Línea_436" data-name="Línea 436" x2="136.479" transform="translate(811 6353) rotate(90)" fill="none" stroke="#ff8f00" stroke-width="3"/>
      </g>
      <path id="Trazado_49536" data-name="Trazado 49536" d="M0,0H43.521" transform="translate(979 1286.73) rotate(90)" fill="none" stroke="#ff8f00" stroke-width="3"/>
      <path id="Trazado_56402" data-name="Trazado 56402" d="M0,0H207.524V53.27H0Z" transform="translate(518 1369.73)" fill="#c62828"/>
      <path id="Trazado_49534" data-name="Trazado 49534" d="M0,0H450V55.27H0Z" transform="translate(753.667 1244.46)" fill="#283593"/>
      <path id="Trazado_70493" data-name="Trazado 70493" d="M16.872,0,13.1-5.4a5.462,5.462,0,0,0,3.456-5.3c0-3.768-2.808-6.1-7.3-6.1H1.992V0H5.88V-4.68H9.456L12.7,0ZM12.624-10.7c0,1.824-1.2,2.928-3.576,2.928H5.88v-5.856H9.048C11.424-13.632,12.624-12.552,12.624-10.7ZM23.5-3.12V-7.008h7.8v-3.024H23.5V-13.68h8.832V-16.8h-12.7V0H32.64V-3.12ZM43.728.288a8.632,8.632,0,0,0,6.936-3l-2.5-2.3a5.354,5.354,0,0,1-4.224,1.992A5.154,5.154,0,0,1,38.568-8.4a5.154,5.154,0,0,1,5.376-5.376,5.405,5.405,0,0,1,4.224,1.968l2.5-2.3a8.673,8.673,0,0,0-6.912-2.976c-5.232,0-9.12,3.624-9.12,8.688S38.52.288,43.728.288ZM60.6.288c4.776,0,7.608-2.736,7.608-7.68V-16.8h-3.84v9.264c0,3.192-1.368,4.512-3.744,4.512-2.352,0-3.744-1.32-3.744-4.512V-16.8H52.992v9.408C52.992-2.448,55.824.288,60.6.288ZM86.928,0,83.16-5.4a5.462,5.462,0,0,0,3.456-5.3c0-3.768-2.808-6.1-7.3-6.1H72.048V0h3.888V-4.68h3.576L82.752,0ZM82.68-10.7c0,1.824-1.2,2.928-3.576,2.928H75.936v-5.856H79.1C81.48-13.632,82.68-12.552,82.68-10.7ZM95.208.288c4.8,0,7.128-2.4,7.128-5.208,0-6.168-9.768-4.032-9.768-7.128,0-1.056.888-1.92,3.192-1.92a9.488,9.488,0,0,1,4.656,1.32l1.2-2.952a11.269,11.269,0,0,0-5.832-1.488c-4.776,0-7.08,2.376-7.08,5.232,0,6.24,9.768,4.08,9.768,7.224,0,1.032-.936,1.8-3.24,1.8a9.882,9.882,0,0,1-5.544-1.752l-1.32,2.928A11.974,11.974,0,0,0,95.208.288Zm17.928,0c5.28,0,9.192-3.672,9.192-8.688s-3.912-8.688-9.192-8.688c-5.3,0-9.192,3.7-9.192,8.688S107.832.288,113.136.288Zm0-3.312A5.125,5.125,0,0,1,107.88-8.4a5.125,5.125,0,0,1,5.256-5.376A5.125,5.125,0,0,1,118.392-8.4,5.125,5.125,0,0,1,113.136-3.024ZM130.776.288c4.8,0,7.128-2.4,7.128-5.208,0-6.168-9.768-4.032-9.768-7.128,0-1.056.888-1.92,3.192-1.92a9.488,9.488,0,0,1,4.656,1.32l1.2-2.952a11.269,11.269,0,0,0-5.832-1.488c-4.776,0-7.08,2.376-7.08,5.232,0,6.24,9.768,4.08,9.768,7.224,0,1.032-.936,1.8-3.24,1.8a9.882,9.882,0,0,1-5.544-1.752l-1.32,2.928A11.974,11.974,0,0,0,130.776.288Z" transform="translate(910.167 1280.73)" fill="#fff"/>
      <path id="Trazado_70495" data-name="Trazado 70495" d="M13.56-16.8V-6.6L5.208-16.8H1.992V0h3.84V-10.2L14.208,0H17.4V-16.8Zm12.768,3.7a9.926,9.926,0,0,0-5.568,1.56L22.1-8.928a6.208,6.208,0,0,1,3.72-1.2c2.016,0,2.976.936,2.976,2.544H25.824C21.888-7.584,20.28-6,20.28-3.72c0,2.232,1.8,3.912,4.824,3.912,1.9,0,3.24-.624,3.936-1.8V0h3.5V-7.368C32.544-11.28,30.264-13.1,26.328-13.1ZM26.04-2.328c-1.32,0-2.112-.624-2.112-1.56,0-.864.552-1.512,2.3-1.512H28.8v1.32A2.759,2.759,0,0,1,26.04-2.328Zm17.208-.936a2.523,2.523,0,0,1-1.512.48,1.506,1.506,0,0,1-1.608-1.7V-9.744h3.216v-2.88H40.128v-3.144H36.384v3.144H34.392v2.88h1.992v5.3c0,3.072,1.776,4.632,4.824,4.632a5.351,5.351,0,0,0,3.048-.816Zm12.384-9.648v6.384c0,2.376-1.248,3.48-2.976,3.48-1.656,0-2.616-.96-2.616-3.12v-6.744H46.3v7.3c0,3.984,2.28,5.808,5.52,5.808a5.224,5.224,0,0,0,4.008-1.728V0h3.552V-12.912Zm10.8,1.7v-1.7H62.856V0H66.6V-6.1c0-2.472,1.368-3.6,3.432-3.6.288,0,.528.024.84.048V-13.1A5.211,5.211,0,0,0,66.432-11.208ZM78.24-13.1a9.926,9.926,0,0,0-5.568,1.56l1.344,2.616a6.208,6.208,0,0,1,3.72-1.2c2.016,0,2.976.936,2.976,2.544H77.736C73.8-7.584,72.192-6,72.192-3.72c0,2.232,1.8,3.912,4.824,3.912,1.9,0,3.24-.624,3.936-1.8V0h3.5V-7.368C84.456-11.28,82.176-13.1,78.24-13.1ZM77.952-2.328c-1.32,0-2.112-.624-2.112-1.56,0-.864.552-1.512,2.3-1.512h2.568v1.32A2.759,2.759,0,0,1,77.952-2.328ZM87.84,0h3.744V-17.808H87.84Zm19.872-6.408a6.392,6.392,0,0,0-6.72-6.7A6.574,6.574,0,0,0,94.1-6.456c0,3.84,2.9,6.648,7.368,6.648A6.763,6.763,0,0,0,106.8-1.9l-1.992-2.16a4.377,4.377,0,0,1-3.24,1.248,3.443,3.443,0,0,1-3.7-2.592h9.768C107.664-5.712,107.712-6.12,107.712-6.408Zm-6.7-3.864a3.068,3.068,0,0,1,3.168,2.688h-6.36A3.057,3.057,0,0,1,101.016-10.272ZM114.552.192c3.864,0,6.1-1.7,6.1-4.1,0-5.088-7.8-2.952-7.8-5.16,0-.672.72-1.2,2.4-1.2a7.415,7.415,0,0,1,3.72.96l1.248-2.664a10.617,10.617,0,0,0-4.968-1.128c-3.768,0-5.976,1.728-5.976,4.176,0,5.16,7.8,3,7.8,5.112,0,.72-.648,1.176-2.376,1.176a8.834,8.834,0,0,1-4.488-1.248L108.96-1.2A11.084,11.084,0,0,0,114.552.192Z" transform="translate(561 1404.73)" fill="#fff"/>
      <path id="Trazado_56412" data-name="Trazado 56412" d="M0,0H207.524V170.27H0Z" transform="translate(518 1466.73)" fill="#cddc39"/>
      <path id="Trazado_56416" data-name="Trazado 56416" d="M0,0H206.55V53.27H0Z" transform="translate(757.933 1369.73)" fill="#c62828"/>
      <path id="Trazado_70496" data-name="Trazado 70496" d="M13.512-16.8v6.624H5.88V-16.8H1.992V0H5.88V-6.888h7.632V0H17.4V-16.8Zm16.872,3.888v6.384c0,2.376-1.248,3.48-2.976,3.48-1.656,0-2.616-.96-2.616-3.12v-6.744H21.048v7.3c0,3.984,2.28,5.808,5.52,5.808a5.224,5.224,0,0,0,4.008-1.728V0h3.552V-12.912Zm23.76-.192a5.806,5.806,0,0,0-4.656,2.112A4.82,4.82,0,0,0,45.24-13.1a5.229,5.229,0,0,0-4.056,1.68v-1.488H37.608V0h3.744V-6.48c0-2.3,1.176-3.384,2.832-3.384,1.56,0,2.448.96,2.448,3.048V0h3.744V-6.48c0-2.3,1.176-3.384,2.856-3.384,1.512,0,2.448.96,2.448,3.048V0h3.744V-7.392C59.424-11.328,57.216-13.1,54.144-13.1Zm13.848,0a9.926,9.926,0,0,0-5.568,1.56l1.344,2.616a6.208,6.208,0,0,1,3.72-1.2c2.016,0,2.976.936,2.976,2.544H67.488c-3.936,0-5.544,1.584-5.544,3.864,0,2.232,1.8,3.912,4.824,3.912,1.9,0,3.24-.624,3.936-1.8V0h3.5V-7.368C74.208-11.28,71.928-13.1,67.992-13.1ZM67.7-2.328c-1.32,0-2.112-.624-2.112-1.56,0-.864.552-1.512,2.3-1.512h2.568v1.32A2.759,2.759,0,0,1,67.7-2.328ZM85.44-13.1a5.653,5.653,0,0,0-4.272,1.7v-1.512H77.592V0h3.744V-6.384c0-2.376,1.3-3.48,3.1-3.48,1.656,0,2.616.96,2.616,3.048V0h3.744V-7.392C90.792-11.328,88.488-13.1,85.44-13.1ZM100.464.192c4.1,0,7.08-2.76,7.08-6.648s-2.976-6.648-7.08-6.648-7.1,2.76-7.1,6.648S96.36.192,100.464.192Zm0-3.072a3.276,3.276,0,0,1-3.312-3.576,3.276,3.276,0,0,1,3.312-3.576,3.259,3.259,0,0,1,3.288,3.576A3.259,3.259,0,0,1,100.464-2.88ZM114.384.192c3.864,0,6.1-1.7,6.1-4.1,0-5.088-7.8-2.952-7.8-5.16,0-.672.72-1.2,2.4-1.2a7.415,7.415,0,0,1,3.72.96l1.248-2.664A10.617,10.617,0,0,0,115.08-13.1c-3.768,0-5.976,1.728-5.976,4.176,0,5.16,7.8,3,7.8,5.112,0,.72-.648,1.176-2.376,1.176a8.834,8.834,0,0,1-4.488-1.248L108.792-1.2A11.084,11.084,0,0,0,114.384.192Z" transform="translate(799.5 1404.73)" fill="#fff"/>
      <path id="Trazado_56417" data-name="Trazado 56417" d="M0,0H206.55V53.27H0Z" transform="translate(996.704 1369.73)" fill="#c62828"/>
      <text id="Capitales" transform="translate(1245 1404.73)" fill="#fff" font-size="24" font-family="Montserrat-Bold, Montserrat" font-weight="700"><tspan x="0" y="0">Capitales</tspan></text>
      <path id="Trazado_56418" data-name="Trazado 56418" d="M0,0H207.524V170.27H0Z" transform="translate(756.701 1466.73)" fill="#cddc39"/>
      <path id="Trazado_56419" data-name="Trazado 56419" d="M0,0H207.524V170.27H0Z" transform="translate(995.215 1466.73)" fill="#cddc39"/>
      <path id="Trazado_70494" data-name="Trazado 70494" d="M1.992,0H14.3V-3.168H5.88V-16.8H1.992ZM24.336.288c5.28,0,9.192-3.672,9.192-8.688s-3.912-8.688-9.192-8.688c-5.3,0-9.192,3.7-9.192,8.688S19.032.288,24.336.288Zm0-3.312A5.125,5.125,0,0,1,19.08-8.4a5.125,5.125,0,0,1,5.256-5.376A5.125,5.125,0,0,1,29.592-8.4,5.125,5.125,0,0,1,24.336-3.024ZM41.976.288c4.8,0,7.128-2.4,7.128-5.208,0-6.168-9.768-4.032-9.768-7.128,0-1.056.888-1.92,3.192-1.92a9.488,9.488,0,0,1,4.656,1.32l1.2-2.952a11.269,11.269,0,0,0-5.832-1.488c-4.776,0-7.08,2.376-7.08,5.232,0,6.24,9.768,4.08,9.768,7.224,0,1.032-.936,1.8-3.24,1.8a9.882,9.882,0,0,1-5.544-1.752l-1.32,2.928A11.974,11.974,0,0,0,41.976.288ZM73.44,0,69.672-5.4a5.462,5.462,0,0,0,3.456-5.3c0-3.768-2.808-6.1-7.3-6.1H58.56V0h3.888V-4.68h3.576L69.264,0ZM69.192-10.7c0,1.824-1.2,2.928-3.576,2.928H62.448v-5.856h3.168C67.992-13.632,69.192-12.552,69.192-10.7ZM80.064-3.12V-7.008h7.8v-3.024h-7.8V-13.68H88.9V-16.8H76.2V0H89.208V-3.12ZM100.3.288a8.632,8.632,0,0,0,6.936-3l-2.5-2.3a5.354,5.354,0,0,1-4.224,1.992A5.154,5.154,0,0,1,95.136-8.4a5.154,5.154,0,0,1,5.376-5.376,5.405,5.405,0,0,1,4.224,1.968l2.5-2.3a8.673,8.673,0,0,0-6.912-2.976c-5.232,0-9.12,3.624-9.12,8.688S95.088.288,100.3.288Zm16.872,0c4.776,0,7.608-2.736,7.608-7.68V-16.8h-3.84v9.264c0,3.192-1.368,4.512-3.744,4.512-2.352,0-3.744-1.32-3.744-4.512V-16.8H109.56v9.408C109.56-2.448,112.392.288,117.168.288ZM143.5,0l-3.768-5.4a5.462,5.462,0,0,0,3.456-5.3c0-3.768-2.808-6.1-7.3-6.1h-7.272V0H132.5V-4.68h3.576L139.32,0Zm-4.248-10.7c0,1.824-1.2,2.928-3.576,2.928H132.5v-5.856h3.168C138.048-13.632,139.248-12.552,139.248-10.7ZM151.776.288c4.8,0,7.128-2.4,7.128-5.208,0-6.168-9.768-4.032-9.768-7.128,0-1.056.888-1.92,3.192-1.92a9.488,9.488,0,0,1,4.656,1.32l1.2-2.952a11.269,11.269,0,0,0-5.832-1.488c-4.776,0-7.08,2.376-7.08,5.232,0,6.24,9.768,4.08,9.768,7.224,0,1.032-.936,1.8-3.24,1.8a9.882,9.882,0,0,1-5.544-1.752l-1.32,2.928A11.974,11.974,0,0,0,151.776.288Zm17.928,0c5.28,0,9.192-3.672,9.192-8.688s-3.912-8.688-9.192-8.688c-5.3,0-9.192,3.7-9.192,8.688S164.4.288,169.7.288Zm0-3.312A5.125,5.125,0,0,1,164.448-8.4a5.125,5.125,0,0,1,5.256-5.376A5.125,5.125,0,0,1,174.96-8.4,5.125,5.125,0,0,1,169.7-3.024ZM187.344.288c4.8,0,7.128-2.4,7.128-5.208,0-6.168-9.768-4.032-9.768-7.128,0-1.056.888-1.92,3.192-1.92a9.488,9.488,0,0,1,4.656,1.32l1.2-2.952a11.269,11.269,0,0,0-5.832-1.488c-4.776,0-7.08,2.376-7.08,5.232,0,6.24,9.768,4.08,9.768,7.224,0,1.032-.936,1.8-3.24,1.8a9.882,9.882,0,0,1-5.544-1.752L180.5-1.656A11.974,11.974,0,0,0,187.344.288ZM207.792-3.12V-7.008h7.8v-3.024h-7.8V-13.68h8.832V-16.8h-12.7V0h13.008V-3.12ZM238.968,0l-.048-16.8h-3.192L229.536-6.36,223.248-16.8h-3.216V0h3.648V-9.864l4.92,8.088h1.752l4.944-8.3L235.32,0Zm11.256-16.8h-7.272V0h3.888V-4.632h3.384c4.488,0,7.3-2.328,7.3-6.072C257.52-14.472,254.712-16.8,250.224-16.8Zm-.216,9H246.84v-5.832h3.168c2.376,0,3.576,1.08,3.576,2.928C253.584-8.88,252.384-7.8,250.008-7.8ZM260.28,0h12.312V-3.168h-8.424V-16.8H260.28Zm18.36-3.12V-7.008h7.8v-3.024h-7.8V-13.68h8.832V-16.8h-12.7V0h13.008V-3.12ZM303.432,0h4.08L300-16.8h-3.84L288.672,0h3.984l1.488-3.6h7.8Zm-8.04-6.552,2.664-6.432,2.664,6.432ZM309.264,0H316.9c5.5,0,9.264-3.312,9.264-8.4s-3.768-8.4-9.264-8.4h-7.632Zm3.888-3.192V-13.608H316.7c3.336,0,5.52,1.992,5.52,5.208s-2.184,5.208-5.52,5.208ZM337.224.288c5.28,0,9.192-3.672,9.192-8.688s-3.912-8.688-9.192-8.688c-5.3,0-9.192,3.7-9.192,8.688S331.92.288,337.224.288Zm0-3.312A5.125,5.125,0,0,1,331.968-8.4a5.125,5.125,0,0,1,5.256-5.376A5.125,5.125,0,0,1,342.48-8.4,5.125,5.125,0,0,1,337.224-3.024ZM354.864.288c4.8,0,7.128-2.4,7.128-5.208,0-6.168-9.768-4.032-9.768-7.128,0-1.056.888-1.92,3.192-1.92a9.488,9.488,0,0,1,4.656,1.32l1.2-2.952a11.269,11.269,0,0,0-5.832-1.488c-4.776,0-7.08,2.376-7.08,5.232,0,6.24,9.768,4.08,9.768,7.224,0,1.032-.936,1.8-3.24,1.8a9.882,9.882,0,0,1-5.544-1.752l-1.32,2.928A11.974,11.974,0,0,0,354.864.288ZM375.312-3.12V-7.008h7.8v-3.024h-7.8V-13.68h8.832V-16.8h-12.7V0h13.008V-3.12ZM399.12-16.8V-6.6l-8.352-10.2h-3.216V0h3.84V-10.2L399.768,0h3.192V-16.8ZM413.736,0h12.312V-3.168h-8.424V-16.8h-3.888Zm27.192,0h4.08L437.5-16.8h-3.84L426.168,0h3.984l1.488-3.6h7.8Zm-8.04-6.552,2.664-6.432,2.664,6.432ZM452.28.288c4.8,0,7.128-2.4,7.128-5.208,0-6.168-9.768-4.032-9.768-7.128,0-1.056.888-1.92,3.192-1.92a9.488,9.488,0,0,1,4.656,1.32l1.2-2.952a11.269,11.269,0,0,0-5.832-1.488c-4.776,0-7.08,2.376-7.08,5.232,0,6.24,9.768,4.08,9.768,7.224,0,1.032-.936,1.8-3.24,1.8a9.882,9.882,0,0,1-5.544-1.752l-1.32,2.928A11.974,11.974,0,0,0,452.28.288ZM481.416,0h4.08l-7.512-16.8h-3.84L466.656,0h3.984l1.488-3.6h7.8Zm-8.04-6.552,2.664-6.432L478.7-6.552ZM495.048.288a8.632,8.632,0,0,0,6.936-3l-2.5-2.3a5.354,5.354,0,0,1-4.224,1.992A5.154,5.154,0,0,1,489.888-8.4a5.154,5.154,0,0,1,5.376-5.376,5.405,5.405,0,0,1,4.224,1.968l2.5-2.3a8.673,8.673,0,0,0-6.912-2.976c-5.232,0-9.12,3.624-9.12,8.688S489.84.288,495.048.288ZM507.912,0H511.8V-13.632h5.376V-16.8h-14.64v3.168h5.376Zm11.352,0h3.888V-16.8h-3.888Zm20.064-16.8-5.184,12-5.112-12h-4.2L532.08,0h3.84l7.272-16.8ZM544.584,0h3.888V-16.8h-3.888Zm7.872,0h7.632c5.5,0,9.264-3.312,9.264-8.4s-3.768-8.4-9.264-8.4h-7.632Zm3.888-3.192V-13.608H559.9c3.336,0,5.52,1.992,5.52,5.208s-2.184,5.208-5.52,5.208ZM584.592,0h4.08L581.16-16.8h-3.84L569.832,0h3.984L575.3-3.6h7.8Zm-8.04-6.552,2.664-6.432,2.664,6.432ZM590.424,0h7.632c5.5,0,9.264-3.312,9.264-8.4s-3.768-8.4-9.264-8.4h-7.632Zm3.888-3.192V-13.608h3.552c3.336,0,5.52,1.992,5.52,5.208s-2.184,5.208-5.52,5.208Zm19.8.072V-7.008h7.8v-3.024h-7.8V-13.68h8.832V-16.8h-12.7V0h13.008V-3.12ZM631.872.288c4.8,0,7.128-2.4,7.128-5.208,0-6.168-9.768-4.032-9.768-7.128,0-1.056.888-1.92,3.192-1.92a9.488,9.488,0,0,1,4.656,1.32l1.2-2.952a11.269,11.269,0,0,0-5.832-1.488c-4.776,0-7.08,2.376-7.08,5.232,0,6.24,9.768,4.08,9.768,7.224,0,1.032-.936,1.8-3.24,1.8a9.882,9.882,0,0,1-5.544-1.752l-1.32,2.928A11.974,11.974,0,0,0,631.872.288ZM661.008,0h4.08l-7.512-16.8h-3.84L646.248,0h3.984l1.488-3.6h7.8Zm-8.04-6.552,2.664-6.432L658.3-6.552Zm24.984,2.808a6.172,6.172,0,0,1-3.024.72A5.185,5.185,0,0,1,669.48-8.4a5.172,5.172,0,0,1,5.5-5.376,5.685,5.685,0,0,1,4.344,1.9l2.5-2.3a8.956,8.956,0,0,0-7.032-2.9c-5.352,0-9.24,3.624-9.24,8.688S669.432.288,674.712.288A11.593,11.593,0,0,0,681.5-1.848V-8.664h-3.552ZM699.984,0l-3.768-5.4a5.462,5.462,0,0,0,3.456-5.3c0-3.768-2.808-6.1-7.3-6.1H685.1V0h3.888V-4.68h3.576L695.808,0Zm-4.248-10.7c0,1.824-1.2,2.928-3.576,2.928h-3.168v-5.856h3.168C694.536-13.632,695.736-12.552,695.736-10.7ZM710.88.288c5.28,0,9.192-3.672,9.192-8.688s-3.912-8.688-9.192-8.688c-5.3,0-9.192,3.7-9.192,8.688S705.576.288,710.88.288Zm0-3.312A5.125,5.125,0,0,1,705.624-8.4a5.125,5.125,0,0,1,5.256-5.376A5.125,5.125,0,0,1,716.136-8.4,5.125,5.125,0,0,1,710.88-3.024ZM730.272-16.8H723V0h3.888V-4.632h3.384c4.488,0,7.3-2.328,7.3-6.072C737.568-14.472,734.76-16.8,730.272-16.8Zm-.216,9h-3.168v-5.832h3.168c2.376,0,3.576,1.08,3.576,2.928C733.632-8.88,732.432-7.8,730.056-7.8Zm14.136,4.68V-7.008h7.8v-3.024h-7.8V-13.68h8.832V-16.8h-12.7V0h13.008V-3.12ZM764.424.288a8.632,8.632,0,0,0,6.936-3l-2.5-2.3a5.354,5.354,0,0,1-4.224,1.992A5.154,5.154,0,0,1,759.264-8.4a5.154,5.154,0,0,1,5.376-5.376,5.405,5.405,0,0,1,4.224,1.968l2.5-2.3a8.673,8.673,0,0,0-6.912-2.976c-5.232,0-9.12,3.624-9.12,8.688S759.216.288,764.424.288Zm16.872,0c4.776,0,7.608-2.736,7.608-7.68V-16.8h-3.84v9.264c0,3.192-1.368,4.512-3.744,4.512-2.352,0-3.744-1.32-3.744-4.512V-16.8h-3.888v9.408C773.688-2.448,776.52.288,781.3.288ZM804.936,0h4.08L801.5-16.8h-3.84L790.176,0h3.984l1.488-3.6h7.8ZM796.9-6.552l2.664-6.432,2.664,6.432ZM825.648,0,821.88-5.4a5.462,5.462,0,0,0,3.456-5.3c0-3.768-2.808-6.1-7.3-6.1h-7.272V0h3.888V-4.68h3.576L821.472,0ZM821.4-10.7c0,1.824-1.2,2.928-3.576,2.928h-3.168v-5.856h3.168C820.2-13.632,821.4-12.552,821.4-10.7ZM828.408,0H832.3V-16.8h-3.888Zm20.424,0h4.08L845.4-16.8h-3.84L834.072,0h3.984l1.488-3.6h7.8Zm-8.04-6.552,2.664-6.432,2.664,6.432ZM860.184.288c4.8,0,7.128-2.4,7.128-5.208,0-6.168-9.768-4.032-9.768-7.128,0-1.056.888-1.92,3.192-1.92a9.489,9.489,0,0,1,4.656,1.32l1.2-2.952a11.269,11.269,0,0,0-5.832-1.488c-4.776,0-7.08,2.376-7.08,5.232,0,6.24,9.768,4.08,9.768,7.224,0,1.032-.936,1.8-3.24,1.8a9.882,9.882,0,0,1-5.544-1.752l-1.32,2.928A11.974,11.974,0,0,0,860.184.288Z" transform="translate(544 1182.73)"/>
      <path id="Trazado_56501" data-name="Trazado 56501" d="M0,0H206.55V53.27H0Z" transform="translate(1233.45 1369.73)" fill="#c62828"/>
      <path id="Trazado_56502" data-name="Trazado 56502" d="M0,0H207.524V170.27H0Z" transform="translate(1231.961 1466.73)" fill="#cddc39"/>
    </g>
    <path id="Trazado_70502" data-name="Trazado 70502" d="M37.006,4.572V6.146H33.86V17H32.128V6.146H28.973V4.572Zm2.848,1.8a1.071,1.071,0,0,1-.778-.325,1.049,1.049,0,0,1-.33-.773,1.035,1.035,0,0,1,.33-.769,1.078,1.078,0,0,1,.778-.321,1.1,1.1,0,0,1,1.09,1.09,1.1,1.1,0,0,1-1.09,1.1ZM38.993,17V8.3h1.7V17Zm12.437-4.518-.026.448H44.662a2.947,2.947,0,0,0,.809,2.118,2.637,2.637,0,0,0,1.907.738,2.513,2.513,0,0,0,1.389-.4,2.587,2.587,0,0,0,.949-1.107l1.529.3a3.865,3.865,0,0,1-1.49,1.894,4.15,4.15,0,0,1-2.36.69,4.3,4.3,0,0,1-3.177-1.208,4.471,4.471,0,0,1-1.208-3.309A4.481,4.481,0,0,1,44.222,9.34a4.215,4.215,0,0,1,3.12-1.217A4,4,0,0,1,50.3,9.239,4.42,4.42,0,0,1,51.429,12.482ZM47.351,9.406a2.484,2.484,0,0,0-2.619,2.241h5a2.451,2.451,0,0,0-.747-1.67A2.366,2.366,0,0,0,47.351,9.406Zm8.016.4a2.547,2.547,0,0,1,1.081-1.151A3.341,3.341,0,0,1,58.135,8.2V9.767a2.924,2.924,0,0,0-2.03.624,2.63,2.63,0,0,0-.686,2.03V17H53.732V8.3h1.635Zm6.152,0A2.547,2.547,0,0,1,62.6,8.659,3.341,3.341,0,0,1,64.288,8.2V9.767a2.924,2.924,0,0,0-2.03.624,2.63,2.63,0,0,0-.686,2.03V17H59.884V8.3h1.635Zm6.434,7.356a3.515,3.515,0,0,1-1.332-.237,2.1,2.1,0,0,1-.958-.787,2.359,2.359,0,0,1-.374-1.358,2.527,2.527,0,0,1,.242-1.143,1.985,1.985,0,0,1,.721-.791,4.615,4.615,0,0,1,1.028-.492,8.947,8.947,0,0,1,1.314-.316l1.371-.237q.791-.149.791-.8a1.426,1.426,0,0,0-.527-1.226,2.152,2.152,0,0,0-1.318-.391,2.2,2.2,0,0,0-1.336.387,1.65,1.65,0,0,0-.624,1.2l-1.521-.308a2.742,2.742,0,0,1,1.121-1.9,4.2,4.2,0,0,1,2.439-.633,5.653,5.653,0,0,1,1.028.088,3.5,3.5,0,0,1,.918.308,2.561,2.561,0,0,1,.756.558,2.5,2.5,0,0,1,.5.87,3.6,3.6,0,0,1,.189,1.208V14.7a1.422,1.422,0,0,0,.2.883.841.841,0,0,0,.672.233h.132V17h-.817a1.49,1.49,0,0,1-1.687-1.169H70.8a2.953,2.953,0,0,1-1.244,1.011A4,4,0,0,1,67.953,17.167Zm.387-1.345a2.327,2.327,0,0,0,1.833-.8,3.163,3.163,0,0,0,.708-2.167l-2.276.466a2.9,2.9,0,0,0-1.257.453,1.042,1.042,0,0,0-.413.883,1.023,1.023,0,0,0,.391.879A1.661,1.661,0,0,0,68.339,15.822Zm8.42,4.359h-1.23l1.081-5.5h1.758Zm11.153-3.015a3.515,3.515,0,0,1-1.332-.237,2.1,2.1,0,0,1-.958-.787,2.359,2.359,0,0,1-.374-1.358,2.527,2.527,0,0,1,.242-1.143,1.985,1.985,0,0,1,.721-.791,4.615,4.615,0,0,1,1.028-.492,8.947,8.947,0,0,1,1.314-.316l1.371-.237q.791-.149.791-.8a1.426,1.426,0,0,0-.527-1.226,2.152,2.152,0,0,0-1.318-.391,2.2,2.2,0,0,0-1.336.387,1.65,1.65,0,0,0-.624,1.2l-1.521-.308a2.742,2.742,0,0,1,1.121-1.9,4.2,4.2,0,0,1,2.439-.633,5.653,5.653,0,0,1,1.028.088,3.5,3.5,0,0,1,.918.308,2.561,2.561,0,0,1,.756.558,2.5,2.5,0,0,1,.5.87,3.6,3.6,0,0,1,.189,1.208V14.7a1.422,1.422,0,0,0,.2.883.841.841,0,0,0,.672.233h.132V17h-.817a1.49,1.49,0,0,1-1.687-1.169H90.76a2.953,2.953,0,0,1-1.244,1.011A4,4,0,0,1,87.913,17.167Zm.387-1.345a2.327,2.327,0,0,0,1.833-.8,3.163,3.163,0,0,0,.708-2.167l-2.276.466a2.9,2.9,0,0,0-1.257.453,1.042,1.042,0,0,0-.413.883,1.023,1.023,0,0,0,.391.879A1.661,1.661,0,0,0,88.3,15.822ZM101.509,8.3h1.626v8.218A4.757,4.757,0,0,1,102,19.949a4.783,4.783,0,0,1-7.44-1.49l1.406-.668a2.792,2.792,0,0,0,2.813,1.96,2.437,2.437,0,0,0,1.991-.822,3.517,3.517,0,0,0,.681-2.307V15.1a3.025,3.025,0,0,1-1.213,1.191,3.573,3.573,0,0,1-1.775.453,3.779,3.779,0,0,1-1.538-.321,3.9,3.9,0,0,1-1.266-.883,4.144,4.144,0,0,1-.853-1.375,4.768,4.768,0,0,1-.316-1.745,4.273,4.273,0,0,1,1.165-3.085,3.772,3.772,0,0,1,2.826-1.213,3.527,3.527,0,0,1,1.793.466,2.986,2.986,0,0,1,1.2,1.239Zm-2.663,7.022a2.545,2.545,0,0,0,1.938-.857,3.034,3.034,0,0,0,0-4.091,2.647,2.647,0,0,0-3.872-.022,2.893,2.893,0,0,0-.787,2.07,2.888,2.888,0,0,0,.791,2.065A2.552,2.552,0,0,0,98.846,15.321ZM111.634,8.3h1.688V17h-1.608l-.044-1.125a2.852,2.852,0,0,1-1.1.954,3.4,3.4,0,0,1-1.534.338,3.088,3.088,0,0,1-2.228-.787,2.939,2.939,0,0,1-.822-2.228V8.3h1.7v5.484a1.954,1.954,0,0,0,.519,1.49,1.859,1.859,0,0,0,1.327.488,2.06,2.06,0,0,0,1.516-.58,2.393,2.393,0,0,0,.593-1.749Zm6.732,8.868a3.515,3.515,0,0,1-1.332-.237,2.1,2.1,0,0,1-.958-.787,2.359,2.359,0,0,1-.374-1.358,2.527,2.527,0,0,1,.242-1.143,1.985,1.985,0,0,1,.721-.791,4.615,4.615,0,0,1,1.028-.492,8.947,8.947,0,0,1,1.314-.316l1.371-.237q.791-.149.791-.8a1.426,1.426,0,0,0-.527-1.226,2.152,2.152,0,0,0-1.318-.391,2.2,2.2,0,0,0-1.336.387,1.65,1.65,0,0,0-.624,1.2l-1.521-.308a2.742,2.742,0,0,1,1.121-1.9,4.2,4.2,0,0,1,2.439-.633,5.653,5.653,0,0,1,1.028.088,3.5,3.5,0,0,1,.918.308,2.561,2.561,0,0,1,.756.558,2.5,2.5,0,0,1,.5.87,3.6,3.6,0,0,1,.189,1.208V14.7a1.422,1.422,0,0,0,.2.883.841.841,0,0,0,.672.233h.132V17h-.817a1.49,1.49,0,0,1-1.687-1.169h-.079a2.953,2.953,0,0,1-1.244,1.011A4,4,0,0,1,118.367,17.167Zm.387-1.345a2.327,2.327,0,0,0,1.833-.8,3.163,3.163,0,0,0,.708-2.167l-2.276.466a2.9,2.9,0,0,0-1.257.453,1.042,1.042,0,0,0-.413.883,1.023,1.023,0,0,0,.391.879A1.661,1.661,0,0,0,118.753,15.822Zm8.42,4.359h-1.23l1.081-5.5h1.758Zm12.8-3.023a4.265,4.265,0,0,1-3.16-1.252,4.433,4.433,0,0,1-1.244-3.265,4.433,4.433,0,0,1,1.244-3.265,4.632,4.632,0,0,1,5.73-.479A3.832,3.832,0,0,1,144,11.059l-1.573.237a2.56,2.56,0,0,0-.945-1.323,2.594,2.594,0,0,0-1.534-.461,2.47,2.47,0,0,0-1.938.861,3.3,3.3,0,0,0-.76,2.268,3.3,3.3,0,0,0,.76,2.263,2.465,2.465,0,0,0,1.938.866,2.594,2.594,0,0,0,1.534-.461,2.56,2.56,0,0,0,.945-1.323l1.573.237a3.836,3.836,0,0,1-1.472,2.158A4.282,4.282,0,0,1,139.97,17.158ZM146.175,17V3.5h1.7V17Zm5.581-10.626a1.071,1.071,0,0,1-.778-.325,1.049,1.049,0,0,1-.33-.773,1.035,1.035,0,0,1,.33-.769,1.078,1.078,0,0,1,.778-.321,1.1,1.1,0,0,1,1.09,1.09,1.1,1.1,0,0,1-1.09,1.1ZM150.9,17V8.3h1.7V17Zm13.86-8.877a2.88,2.88,0,0,1,2.061.734,2.708,2.708,0,0,1,.778,2.07V17h-1.687V11.375a1.883,1.883,0,0,0-.461-1.38,1.571,1.571,0,0,0-1.165-.466,1.7,1.7,0,0,0-1.31.541,2.326,2.326,0,0,0-.5,1.63V17h-1.714V11.437a1.975,1.975,0,0,0-.466-1.424,1.577,1.577,0,0,0-1.187-.483,1.686,1.686,0,0,0-1.305.554,2.421,2.421,0,0,0-.505,1.679V17h-1.679V8.3h1.679V9.406A2.675,2.675,0,0,1,159.7,8.123a3.069,3.069,0,0,1,1.512.36,2.283,2.283,0,0,1,.976,1.046,2.76,2.76,0,0,1,1.063-1.046A3.082,3.082,0,0,1,164.755,8.123Zm7.734,9.044a3.515,3.515,0,0,1-1.332-.237,2.1,2.1,0,0,1-.958-.787,2.359,2.359,0,0,1-.374-1.358,2.527,2.527,0,0,1,.242-1.143,1.985,1.985,0,0,1,.721-.791,4.615,4.615,0,0,1,1.028-.492,8.947,8.947,0,0,1,1.314-.316l1.371-.237q.791-.149.791-.8a1.426,1.426,0,0,0-.527-1.226,2.152,2.152,0,0,0-1.318-.391,2.2,2.2,0,0,0-1.336.387,1.65,1.65,0,0,0-.624,1.2l-1.521-.308a2.742,2.742,0,0,1,1.121-1.9,4.2,4.2,0,0,1,2.439-.633,5.653,5.653,0,0,1,1.028.088,3.5,3.5,0,0,1,.918.308,2.561,2.561,0,0,1,.756.558,2.5,2.5,0,0,1,.5.87,3.6,3.6,0,0,1,.189,1.208V14.7a1.422,1.422,0,0,0,.2.883.841.841,0,0,0,.672.233h.132V17H177.1a1.49,1.49,0,0,1-1.687-1.169h-.079a2.953,2.953,0,0,1-1.244,1.011A4,4,0,0,1,172.49,17.167Zm.387-1.345a2.327,2.327,0,0,0,1.833-.8,3.163,3.163,0,0,0,.708-2.167l-2.276.466a2.9,2.9,0,0,0-1.257.453,1.042,1.042,0,0,0-.413.883,1.023,1.023,0,0,0,.391.879A1.661,1.661,0,0,0,172.876,15.822Z" transform="translate(499.5 1351)" fill="#00223d"/>
    <path id="Trazado_70501" data-name="Trazado 70501" d="M17.273,6.146H12.3v3.867h4.386v1.564H12.3v3.841h4.975V17H10.514V4.572h6.759ZM19.857,17V3.5h1.7V17Zm13.131.167a4.274,4.274,0,0,1-4.456-4.526,4.456,4.456,0,1,1,8.9,0,4.423,4.423,0,0,1-1.248,3.292A4.356,4.356,0,0,1,32.988,17.167Zm-.018-1.389a2.6,2.6,0,0,0,2-.866,3.237,3.237,0,0,0,.791-2.272,3.221,3.221,0,0,0-.791-2.268,2.6,2.6,0,0,0-2-.861,2.556,2.556,0,0,0-1.978.861,3.243,3.243,0,0,0-.782,2.268,3.259,3.259,0,0,0,.782,2.272A2.55,2.55,0,0,0,32.97,15.778ZM44.431,8.123a3.89,3.89,0,0,1,3.524,2.14,5.006,5.006,0,0,1,.554,2.386,4.607,4.607,0,0,1-1.173,3.283,3.82,3.82,0,0,1-2.9,1.252,3.5,3.5,0,0,1-1.815-.475,3.039,3.039,0,0,1-1.208-1.292L41.364,17H39.738V3.5h1.679l.009,6.346a3.047,3.047,0,0,1,1.213-1.261A3.522,3.522,0,0,1,44.431,8.123ZM42.1,14.86a2.539,2.539,0,0,0,1.964.883,2.574,2.574,0,0,0,1.964-.857,3.157,3.157,0,0,0,.8-2.237,3.141,3.141,0,0,0-.8-2.232,2.58,2.58,0,0,0-1.964-.853,2.543,2.543,0,0,0-1.96.883,3.158,3.158,0,0,0-.8,2.2A3.18,3.18,0,0,0,42.1,14.86ZM52.464,9.811a2.547,2.547,0,0,1,1.081-1.151A3.341,3.341,0,0,1,55.233,8.2V9.767a2.924,2.924,0,0,0-2.03.624,2.63,2.63,0,0,0-.686,2.03V17H50.83V8.3h1.635Zm12.129,2.672-.026.448H57.826a2.947,2.947,0,0,0,.809,2.118,2.637,2.637,0,0,0,1.907.738,2.513,2.513,0,0,0,1.389-.4,2.587,2.587,0,0,0,.949-1.107l1.529.3a3.865,3.865,0,0,1-1.49,1.894,4.15,4.15,0,0,1-2.36.69,4.3,4.3,0,0,1-3.177-1.208,4.471,4.471,0,0,1-1.208-3.309A4.481,4.481,0,0,1,57.386,9.34a4.215,4.215,0,0,1,3.12-1.217,4,4,0,0,1,2.962,1.116A4.42,4.42,0,0,1,64.593,12.482ZM60.515,9.406A2.484,2.484,0,0,0,57.9,11.647h5a2.451,2.451,0,0,0-.747-1.67A2.366,2.366,0,0,0,60.515,9.406Zm8.016.4a2.547,2.547,0,0,1,1.081-1.151A3.341,3.341,0,0,1,71.3,8.2V9.767a2.924,2.924,0,0,0-2.03.624,2.63,2.63,0,0,0-.686,2.03V17H66.9V8.3h1.635Zm8.147,7.356a4.274,4.274,0,0,1-4.456-4.526,4.456,4.456,0,1,1,8.9,0,4.423,4.423,0,0,1-1.248,3.292A4.356,4.356,0,0,1,76.678,17.167Zm-.018-1.389a2.6,2.6,0,0,0,2-.866,3.237,3.237,0,0,0,.791-2.272,3.221,3.221,0,0,0-.791-2.268,2.6,2.6,0,0,0-2-.861,2.556,2.556,0,0,0-1.978.861,3.243,3.243,0,0,0-.782,2.268,3.259,3.259,0,0,0,.782,2.272A2.55,2.55,0,0,0,76.661,15.778Zm7.154,4.4h-1.23l1.081-5.5h1.758Zm16.849-7.7-.026.448H93.9a2.947,2.947,0,0,0,.809,2.118,2.637,2.637,0,0,0,1.907.738,2.513,2.513,0,0,0,1.389-.4,2.587,2.587,0,0,0,.949-1.107l1.529.3a3.865,3.865,0,0,1-1.49,1.894,4.15,4.15,0,0,1-2.36.69,4.3,4.3,0,0,1-3.177-1.208,4.471,4.471,0,0,1-1.208-3.309A4.481,4.481,0,0,1,93.457,9.34a4.215,4.215,0,0,1,3.12-1.217,4,4,0,0,1,2.962,1.116A4.42,4.42,0,0,1,100.664,12.482ZM96.585,9.406a2.484,2.484,0,0,0-2.619,2.241h5a2.451,2.451,0,0,0-.747-1.67A2.366,2.366,0,0,0,96.585,9.406ZM102.966,17V3.5h1.7V17Zm14.08-8.877a3.833,3.833,0,0,1,2.9,1.244,4.588,4.588,0,0,1,1.173,3.283,5.375,5.375,0,0,1-.321,1.89,4.11,4.11,0,0,1-.875,1.437,3.9,3.9,0,0,1-1.3.892,4,4,0,0,1-1.586.316,3.505,3.505,0,0,1-1.784-.461,3.06,3.06,0,0,1-1.213-1.252v5.889h-1.687V8.3h1.626l.044,1.591A3.032,3.032,0,0,1,115.245,8.6,3.493,3.493,0,0,1,117.046,8.123Zm-.352,7.62a2.569,2.569,0,0,0,1.951-.844,3.157,3.157,0,0,0,.791-2.25,3.132,3.132,0,0,0-.791-2.232,2.671,2.671,0,0,0-3.929.035,3.142,3.142,0,0,0-.8,2.2,3.17,3.17,0,0,0,.8,2.21A2.562,2.562,0,0,0,116.695,15.743Zm14.476-3.261-.026.448H124.4a2.947,2.947,0,0,0,.809,2.118,2.637,2.637,0,0,0,1.907.738,2.513,2.513,0,0,0,1.389-.4,2.587,2.587,0,0,0,.949-1.107l1.529.3a3.865,3.865,0,0,1-1.49,1.894,4.15,4.15,0,0,1-2.36.69,4.3,4.3,0,0,1-3.177-1.208,4.471,4.471,0,0,1-1.208-3.309,4.481,4.481,0,0,1,1.213-3.309,4.215,4.215,0,0,1,3.12-1.217,4,4,0,0,1,2.962,1.116A4.42,4.42,0,0,1,131.17,12.482Zm-4.078-3.076a2.484,2.484,0,0,0-2.619,2.241h5a2.451,2.451,0,0,0-.747-1.67A2.366,2.366,0,0,0,127.092,9.406Zm8.016.4a2.547,2.547,0,0,1,1.081-1.151,3.341,3.341,0,0,1,1.688-.457V9.767a2.924,2.924,0,0,0-2.03.624,2.63,2.63,0,0,0-.686,2.03V17h-1.687V8.3h1.635Zm5.379-3.437a1.071,1.071,0,0,1-.778-.325,1.049,1.049,0,0,1-.33-.773,1.035,1.035,0,0,1,.33-.769,1.078,1.078,0,0,1,.778-.321,1.1,1.1,0,0,1,1.09,1.09,1.1,1.1,0,0,1-1.09,1.1ZM139.625,17V8.3h1.7V17Zm7.576,0a2.342,2.342,0,0,1-1.74-.637,2.428,2.428,0,0,1-.633-1.789V9.626h-1.775V8.3h.642a1.291,1.291,0,0,0,.98-.316,1.56,1.56,0,0,0,.294-1.072v-1.5h1.556V8.3h1.969V9.626h-1.969V14.4a1.3,1.3,0,0,0,.321.94,1.122,1.122,0,0,0,.848.334h.8V17Zm7.093.167a4.274,4.274,0,0,1-4.456-4.526,4.456,4.456,0,1,1,8.9,0,4.423,4.423,0,0,1-1.248,3.292A4.356,4.356,0,0,1,154.294,17.167Zm-.018-1.389a2.6,2.6,0,0,0,2-.866,3.237,3.237,0,0,0,.791-2.272,3.221,3.221,0,0,0-.791-2.268,2.6,2.6,0,0,0-2-.861,2.556,2.556,0,0,0-1.978.861,3.243,3.243,0,0,0-.782,2.268,3.259,3.259,0,0,0,.782,2.272A2.55,2.55,0,0,0,154.277,15.778Zm7.154,4.4H160.2l1.081-5.5h1.758Zm-114.06,22.3-.026.448H40.6a2.947,2.947,0,0,0,.809,2.118,2.637,2.637,0,0,0,1.907.738,2.513,2.513,0,0,0,1.389-.4,2.587,2.587,0,0,0,.949-1.107l1.529.3a3.865,3.865,0,0,1-1.49,1.894,4.15,4.15,0,0,1-2.36.69,4.3,4.3,0,0,1-3.177-1.208,4.471,4.471,0,0,1-1.208-3.309,4.481,4.481,0,0,1,1.213-3.309,4.215,4.215,0,0,1,3.12-1.217,4,4,0,0,1,2.962,1.116A4.42,4.42,0,0,1,47.371,42.482Zm-4.078-3.076a2.484,2.484,0,0,0-2.619,2.241h5a2.451,2.451,0,0,0-.747-1.67A2.366,2.366,0,0,0,43.293,39.406ZM49.674,47V33.5h1.7V47ZM59.931,36.374a1.071,1.071,0,0,1-.778-.325,1.049,1.049,0,0,1-.33-.773,1.035,1.035,0,0,1,.33-.769,1.078,1.078,0,0,1,.778-.321,1.094,1.094,0,0,1,0,2.188ZM59.069,47V38.3h1.7V47Zm9.009-8.877a3.088,3.088,0,0,1,2.228.787,2.939,2.939,0,0,1,.822,2.228V47h-1.7V41.516a1.976,1.976,0,0,0-.514-1.5,1.844,1.844,0,0,0-1.323-.488,2.066,2.066,0,0,0-1.521.584,2.384,2.384,0,0,0-.6,1.745V47H63.789V38.3h1.688v1.072a2.817,2.817,0,0,1,1.094-.923A3.417,3.417,0,0,1,68.078,38.123Zm12.155.176h1.626v8.218a4.757,4.757,0,0,1-1.138,3.432,4.783,4.783,0,0,1-7.44-1.49l1.406-.668a2.792,2.792,0,0,0,2.813,1.96,2.437,2.437,0,0,0,1.991-.822,3.517,3.517,0,0,0,.681-2.307V45.1a3.025,3.025,0,0,1-1.213,1.191,3.573,3.573,0,0,1-1.775.453,3.779,3.779,0,0,1-1.538-.321,3.9,3.9,0,0,1-1.266-.883,4.144,4.144,0,0,1-.853-1.375,4.768,4.768,0,0,1-.316-1.745,4.273,4.273,0,0,1,1.165-3.085A3.772,3.772,0,0,1,77.2,38.123a3.527,3.527,0,0,1,1.793.466,2.986,2.986,0,0,1,1.2,1.239ZM77.57,45.321a2.545,2.545,0,0,0,1.938-.857,3.034,3.034,0,0,0,0-4.091,2.647,2.647,0,0,0-3.872-.022,3.1,3.1,0,0,0,0,4.135A2.552,2.552,0,0,0,77.57,45.321ZM92.6,42.482l-.026.448H85.832a2.947,2.947,0,0,0,.809,2.118,2.637,2.637,0,0,0,1.907.738,2.513,2.513,0,0,0,1.389-.4,2.587,2.587,0,0,0,.949-1.107l1.529.3a3.865,3.865,0,0,1-1.49,1.894,4.15,4.15,0,0,1-2.36.69,4.3,4.3,0,0,1-3.177-1.208,4.471,4.471,0,0,1-1.208-3.309,4.481,4.481,0,0,1,1.213-3.309,4.215,4.215,0,0,1,3.12-1.217,4,4,0,0,1,2.962,1.116A4.42,4.42,0,0,1,92.6,42.482Zm-4.078-3.076A2.484,2.484,0,0,0,85.9,41.647h5a2.451,2.451,0,0,0-.747-1.67A2.366,2.366,0,0,0,88.521,39.406Zm10.67-1.283a3.088,3.088,0,0,1,2.228.787,2.939,2.939,0,0,1,.822,2.228V47h-1.7V41.516a1.976,1.976,0,0,0-.514-1.5,1.844,1.844,0,0,0-1.323-.488,2.066,2.066,0,0,0-1.521.584,2.384,2.384,0,0,0-.6,1.745V47H94.9V38.3H96.59v1.072a2.817,2.817,0,0,1,1.094-.923A3.417,3.417,0,0,1,99.191,38.123Zm6.768-1.749a1.071,1.071,0,0,1-.778-.325,1.049,1.049,0,0,1-.33-.773,1.035,1.035,0,0,1,.33-.769,1.078,1.078,0,0,1,.778-.321,1.094,1.094,0,0,1,0,2.188ZM105.1,47V38.3h1.7V47Zm12.437-4.518-.026.448h-6.741a2.947,2.947,0,0,0,.809,2.118,2.637,2.637,0,0,0,1.907.738,2.513,2.513,0,0,0,1.389-.4,2.587,2.587,0,0,0,.949-1.107l1.529.3a3.865,3.865,0,0,1-1.49,1.894,4.15,4.15,0,0,1-2.36.69,4.3,4.3,0,0,1-3.177-1.208,4.471,4.471,0,0,1-1.208-3.309,4.481,4.481,0,0,1,1.213-3.309,4.215,4.215,0,0,1,3.12-1.217,4,4,0,0,1,2.962,1.116A4.42,4.42,0,0,1,117.534,42.482Zm-4.078-3.076a2.484,2.484,0,0,0-2.619,2.241h5a2.451,2.451,0,0,0-.747-1.67A2.366,2.366,0,0,0,113.456,39.406Zm8.016.4a2.547,2.547,0,0,1,1.081-1.151,3.341,3.341,0,0,1,1.688-.457v1.564a2.924,2.924,0,0,0-2.03.624,2.63,2.63,0,0,0-.686,2.03V47h-1.687V38.3h1.635Zm8.147,7.356a4.647,4.647,0,1,1,4.447-4.526,4.423,4.423,0,0,1-1.248,3.292A4.356,4.356,0,0,1,129.619,47.167Zm-.018-1.389a2.6,2.6,0,0,0,2-.866,3.652,3.652,0,0,0,0-4.54,2.6,2.6,0,0,0-2-.861,2.556,2.556,0,0,0-1.978.861,3.684,3.684,0,0,0,0,4.54A2.55,2.55,0,0,0,129.6,45.778ZM46.2,77.167a3.515,3.515,0,0,1-1.332-.237,2.1,2.1,0,0,1-.958-.787,2.359,2.359,0,0,1-.374-1.358,2.527,2.527,0,0,1,.242-1.143,1.985,1.985,0,0,1,.721-.791,4.615,4.615,0,0,1,1.028-.492,8.947,8.947,0,0,1,1.314-.316l1.371-.237q.791-.149.791-.8a1.426,1.426,0,0,0-.527-1.226,2.152,2.152,0,0,0-1.318-.391,2.2,2.2,0,0,0-1.336.387,1.65,1.65,0,0,0-.624,1.2l-1.521-.308a2.742,2.742,0,0,1,1.121-1.9,4.2,4.2,0,0,1,2.439-.633,5.652,5.652,0,0,1,1.028.088,3.5,3.5,0,0,1,.918.308,2.561,2.561,0,0,1,.756.558,2.5,2.5,0,0,1,.5.87,3.6,3.6,0,0,1,.189,1.208V74.7a1.422,1.422,0,0,0,.2.883.841.841,0,0,0,.672.233h.132V77h-.817a1.49,1.49,0,0,1-1.687-1.169H49.05a2.953,2.953,0,0,1-1.244,1.011A4,4,0,0,1,46.2,77.167Zm.387-1.345a2.327,2.327,0,0,0,1.833-.8,3.163,3.163,0,0,0,.708-2.167l-2.276.466a2.9,2.9,0,0,0-1.257.453,1.042,1.042,0,0,0-.413.883,1.023,1.023,0,0,0,.391.879A1.661,1.661,0,0,0,46.589,75.822ZM59.8,68.3h1.626v8.218a4.757,4.757,0,0,1-1.138,3.432,4.18,4.18,0,0,1-3.16,1.182,4.176,4.176,0,0,1-4.28-2.672l1.406-.668a2.792,2.792,0,0,0,2.813,1.96,2.437,2.437,0,0,0,1.991-.822,3.517,3.517,0,0,0,.681-2.307V75.1a3.025,3.025,0,0,1-1.213,1.191,3.573,3.573,0,0,1-1.775.453,3.779,3.779,0,0,1-1.538-.321,3.9,3.9,0,0,1-1.266-.883,4.144,4.144,0,0,1-.853-1.375,4.768,4.768,0,0,1-.316-1.745,4.273,4.273,0,0,1,1.165-3.085,3.772,3.772,0,0,1,2.826-1.213,3.527,3.527,0,0,1,1.793.466,2.986,2.986,0,0,1,1.2,1.239Zm-2.663,7.022a2.545,2.545,0,0,0,1.938-.857,3.034,3.034,0,0,0,0-4.091,2.647,2.647,0,0,0-3.872-.022,3.1,3.1,0,0,0,0,4.135A2.552,2.552,0,0,0,57.136,75.321Zm8.947-5.511a2.547,2.547,0,0,1,1.081-1.151,3.341,3.341,0,0,1,1.688-.457v1.564a2.924,2.924,0,0,0-2.03.624,2.63,2.63,0,0,0-.686,2.03V77H64.448V68.3h1.635Zm7.532-2.962,2.224-2.927.879.642-1.969,2.285Zm.615,10.318a4.647,4.647,0,1,1,4.447-4.526,4.423,4.423,0,0,1-1.248,3.292A4.356,4.356,0,0,1,74.23,77.167Zm-.018-1.389a2.6,2.6,0,0,0,2-.866,3.652,3.652,0,0,0,0-4.54,2.6,2.6,0,0,0-2-.861,2.556,2.556,0,0,0-1.978.861,3.684,3.684,0,0,0,0,4.54A2.55,2.55,0,0,0,74.213,75.778ZM85.27,68.123a3.088,3.088,0,0,1,2.228.787,2.939,2.939,0,0,1,.822,2.228V77h-1.7V71.516a1.976,1.976,0,0,0-.514-1.5,1.844,1.844,0,0,0-1.323-.488,2.066,2.066,0,0,0-1.521.584,2.384,2.384,0,0,0-.6,1.745V77H80.98V68.3h1.688v1.072a2.817,2.817,0,0,1,1.094-.923A3.417,3.417,0,0,1,85.27,68.123Zm9.642,9.044a4.647,4.647,0,1,1,4.447-4.526,4.423,4.423,0,0,1-1.248,3.292A4.356,4.356,0,0,1,94.911,77.167Zm-.018-1.389a2.6,2.6,0,0,0,2-.866,3.652,3.652,0,0,0,0-4.54,2.6,2.6,0,0,0-2-.861,2.556,2.556,0,0,0-1.978.861,3.684,3.684,0,0,0,0,4.54A2.55,2.55,0,0,0,94.894,75.778ZM110.8,68.123a2.88,2.88,0,0,1,2.061.734,2.708,2.708,0,0,1,.778,2.07V77h-1.687V71.375a1.883,1.883,0,0,0-.461-1.38,1.571,1.571,0,0,0-1.165-.466,1.7,1.7,0,0,0-1.31.541,2.326,2.326,0,0,0-.5,1.63V77H106.8V71.437a1.975,1.975,0,0,0-.466-1.424,1.577,1.577,0,0,0-1.187-.483,1.686,1.686,0,0,0-1.305.554,2.421,2.421,0,0,0-.505,1.679V77h-1.679V68.3h1.679v1.107a2.675,2.675,0,0,1,2.408-1.283,3.069,3.069,0,0,1,1.512.36,2.283,2.283,0,0,1,.976,1.046,2.76,2.76,0,0,1,1.063-1.046A3.082,3.082,0,0,1,110.8,68.123Zm9.448,9.044a4.647,4.647,0,1,1,4.447-4.526,4.423,4.423,0,0,1-1.248,3.292A4.356,4.356,0,0,1,120.25,77.167Zm-.018-1.389a2.6,2.6,0,0,0,2-.866,3.652,3.652,0,0,0,0-4.54,2.6,2.6,0,0,0-2-.861,2.556,2.556,0,0,0-1.978.861,3.684,3.684,0,0,0,0,4.54A2.55,2.55,0,0,0,120.232,75.778Zm7.154,4.4h-1.23l1.081-5.5H129Zm-96.93,22.3-.026.448H23.689a2.947,2.947,0,0,0,.809,2.118,2.637,2.637,0,0,0,1.907.738,2.513,2.513,0,0,0,1.389-.4,2.587,2.587,0,0,0,.949-1.107l1.529.3a3.865,3.865,0,0,1-1.49,1.894,4.15,4.15,0,0,1-2.36.69,4.3,4.3,0,0,1-3.177-1.208,5.128,5.128,0,0,1,0-6.618,4.215,4.215,0,0,1,3.12-1.217,4,4,0,0,1,2.962,1.116A4.42,4.42,0,0,1,30.457,102.482Zm-4.078-3.076a2.484,2.484,0,0,0-2.619,2.241h5a2.451,2.451,0,0,0-.747-1.67A2.366,2.366,0,0,0,26.378,99.406ZM32.759,107V93.5h1.7V107Zm14.862-8.7h1.8L45.855,107H44.4l-3.551-8.7h1.793l2.487,6.75Zm10.9,4.184-.026.448H51.752a2.947,2.947,0,0,0,.809,2.118,2.637,2.637,0,0,0,1.907.738,2.513,2.513,0,0,0,1.389-.4,2.587,2.587,0,0,0,.949-1.107l1.529.3a3.865,3.865,0,0,1-1.49,1.894,4.15,4.15,0,0,1-2.36.69,4.3,4.3,0,0,1-3.177-1.208,5.128,5.128,0,0,1,0-6.618,4.215,4.215,0,0,1,3.12-1.217A4,4,0,0,1,57.4,99.239,4.42,4.42,0,0,1,58.52,102.482Zm-4.078-3.076a2.484,2.484,0,0,0-2.619,2.241h5a2.451,2.451,0,0,0-.747-1.67A2.366,2.366,0,0,0,54.442,99.406ZM63.679,107a2.342,2.342,0,0,1-1.74-.637,2.428,2.428,0,0,1-.633-1.789V99.626H59.531V98.3h.642a1.291,1.291,0,0,0,.98-.316,1.56,1.56,0,0,0,.294-1.072v-1.5H63V98.3h1.969v1.327H63V104.4a1.3,1.3,0,0,0,.321.94,1.122,1.122,0,0,0,.848.334h.8V107Zm11.074-4.518-.026.448H67.986a2.947,2.947,0,0,0,.809,2.118,2.637,2.637,0,0,0,1.907.738,2.513,2.513,0,0,0,1.389-.4,2.587,2.587,0,0,0,.949-1.107l1.529.3a3.865,3.865,0,0,1-1.49,1.894,4.15,4.15,0,0,1-2.36.69,4.3,4.3,0,0,1-3.177-1.208,5.128,5.128,0,0,1,0-6.618,4.215,4.215,0,0,1,3.12-1.217,4,4,0,0,1,2.962,1.116A4.42,4.42,0,0,1,74.753,102.482Zm-4.078-3.076a2.484,2.484,0,0,0-2.619,2.241h5a2.451,2.451,0,0,0-.747-1.67A2.366,2.366,0,0,0,70.675,99.406Zm8.016.4a2.547,2.547,0,0,1,1.081-1.151,3.341,3.341,0,0,1,1.688-.457v1.564a2.924,2.924,0,0,0-2.03.624,2.63,2.63,0,0,0-.686,2.03V107H77.056V98.3h1.635Zm5.379-3.437a1.071,1.071,0,0,1-.778-.325,1.049,1.049,0,0,1-.33-.773,1.035,1.035,0,0,1,.33-.769,1.078,1.078,0,0,1,.778-.321,1.094,1.094,0,0,1,0,2.188ZM83.208,107V98.3h1.7V107Zm9.009-8.877a3.088,3.088,0,0,1,2.228.787,2.939,2.939,0,0,1,.822,2.228V107h-1.7v-5.484a1.976,1.976,0,0,0-.514-1.5,1.844,1.844,0,0,0-1.323-.488,2.066,2.066,0,0,0-1.521.584,2.384,2.384,0,0,0-.6,1.745V107H87.928V98.3h1.688v1.072a2.817,2.817,0,0,1,1.094-.923A3.417,3.417,0,0,1,92.217,98.123Zm7.928,9.044a3.515,3.515,0,0,1-1.332-.237,2.1,2.1,0,0,1-.958-.787,2.359,2.359,0,0,1-.374-1.358,2.527,2.527,0,0,1,.242-1.143,1.985,1.985,0,0,1,.721-.791,4.615,4.615,0,0,1,1.028-.492,8.947,8.947,0,0,1,1.314-.316l1.371-.237q.791-.149.791-.8a1.426,1.426,0,0,0-.527-1.226,2.152,2.152,0,0,0-1.318-.391,2.2,2.2,0,0,0-1.336.387,1.65,1.65,0,0,0-.624,1.2l-1.521-.308a2.742,2.742,0,0,1,1.121-1.9,4.2,4.2,0,0,1,2.439-.633,5.652,5.652,0,0,1,1.028.088,3.5,3.5,0,0,1,.918.308,2.561,2.561,0,0,1,.756.558,2.5,2.5,0,0,1,.5.87,3.6,3.6,0,0,1,.189,1.208V104.7a1.422,1.422,0,0,0,.2.883.841.841,0,0,0,.672.233h.132V107h-.817a1.49,1.49,0,0,1-1.687-1.169h-.079a2.953,2.953,0,0,1-1.244,1.011A4,4,0,0,1,100.145,107.167Zm.387-1.345a2.327,2.327,0,0,0,1.833-.8,3.163,3.163,0,0,0,.708-2.167l-2.276.466a2.9,2.9,0,0,0-1.257.453,1.042,1.042,0,0,0-.413.883,1.023,1.023,0,0,0,.391.879A1.661,1.661,0,0,0,100.532,105.822Zm8.771-6.012a2.547,2.547,0,0,1,1.081-1.151,3.341,3.341,0,0,1,1.688-.457v1.564a2.924,2.924,0,0,0-2.03.624,2.63,2.63,0,0,0-.686,2.03V107h-1.687V98.3H109.3Zm5.379-3.437a1.071,1.071,0,0,1-.778-.325,1.049,1.049,0,0,1-.33-.773,1.035,1.035,0,0,1,.33-.769,1.078,1.078,0,0,1,.778-.321,1.094,1.094,0,0,1,0,2.188ZM113.821,107V98.3h1.7V107Zm8.455.167a4.647,4.647,0,1,1,4.447-4.526,4.423,4.423,0,0,1-1.248,3.292A4.356,4.356,0,0,1,122.276,107.167Zm-.018-1.389a2.6,2.6,0,0,0,2-.866,3.652,3.652,0,0,0,0-4.54,2.6,2.6,0,0,0-2-.861,2.556,2.556,0,0,0-1.978.861,3.684,3.684,0,0,0,0,4.54A2.55,2.55,0,0,0,122.258,105.778Zm7.154,4.4h-1.23l1.081-5.5h1.758Zm16.849-7.7-.026.448h-6.741a2.947,2.947,0,0,0,.809,2.118,2.637,2.637,0,0,0,1.907.738,2.513,2.513,0,0,0,1.389-.4,2.587,2.587,0,0,0,.949-1.107l1.529.3a3.865,3.865,0,0,1-1.49,1.894,4.15,4.15,0,0,1-2.36.69,4.3,4.3,0,0,1-3.177-1.208,5.128,5.128,0,0,1,0-6.618,4.215,4.215,0,0,1,3.12-1.217,4,4,0,0,1,2.962,1.116A4.42,4.42,0,0,1,146.261,102.482Zm-4.078-3.076a2.484,2.484,0,0,0-2.619,2.241h5a2.451,2.451,0,0,0-.747-1.67A2.366,2.366,0,0,0,142.183,99.406ZM148.564,107V93.5h1.7V107ZM47.037,128.3l-4.491,7.348H47.02V137H40.041l4.456-7.348H40.313V128.3Zm5.484,8.868a4.647,4.647,0,1,1,4.447-4.526,4.423,4.423,0,0,1-1.248,3.292A4.356,4.356,0,0,1,52.521,137.167Zm-.018-1.389a2.6,2.6,0,0,0,2-.866,3.652,3.652,0,0,0,0-4.54,2.6,2.6,0,0,0-2-.861,2.556,2.556,0,0,0-1.978.861,3.684,3.684,0,0,0,0,4.54A2.55,2.55,0,0,0,52.5,135.778Zm10.5,1.389a4.647,4.647,0,1,1,4.447-4.526,4.423,4.423,0,0,1-1.248,3.292A4.356,4.356,0,0,1,63.007,137.167Zm-.018-1.389a2.6,2.6,0,0,0,2-.866,3.652,3.652,0,0,0,0-4.54,2.6,2.6,0,0,0-2-.861,2.556,2.556,0,0,0-1.978.861,3.684,3.684,0,0,0,0,4.54A2.55,2.55,0,0,0,62.989,135.778ZM72.613,137a2.342,2.342,0,0,1-1.74-.637,2.428,2.428,0,0,1-.633-1.789v-4.948H68.465V128.3h.642a1.291,1.291,0,0,0,.98-.316,1.56,1.56,0,0,0,.294-1.072v-1.5h1.556V128.3h1.969v1.327H71.937V134.4a1.3,1.3,0,0,0,.321.94,1.122,1.122,0,0,0,.848.334h.8V137Zm11.074-4.518-.026.448H76.92a2.947,2.947,0,0,0,.809,2.118,2.637,2.637,0,0,0,1.907.738,2.513,2.513,0,0,0,1.389-.4,2.587,2.587,0,0,0,.949-1.107l1.529.3a3.865,3.865,0,0,1-1.49,1.894,4.15,4.15,0,0,1-2.36.69,4.3,4.3,0,0,1-3.177-1.208,5.128,5.128,0,0,1,0-6.618,4.215,4.215,0,0,1,3.12-1.217,4,4,0,0,1,2.962,1.116A4.42,4.42,0,0,1,83.688,132.482Zm-4.078-3.076a2.484,2.484,0,0,0-2.619,2.241h5a2.451,2.451,0,0,0-.747-1.67A2.366,2.366,0,0,0,79.609,129.406Zm10.046,7.752a4.265,4.265,0,0,1-3.16-1.252,4.908,4.908,0,0,1,0-6.53,4.632,4.632,0,0,1,5.73-.479,3.832,3.832,0,0,1,1.463,2.162l-1.573.237a2.56,2.56,0,0,0-.945-1.323,2.594,2.594,0,0,0-1.534-.461,2.47,2.47,0,0,0-1.938.861,3.755,3.755,0,0,0,0,4.531,2.465,2.465,0,0,0,1.938.866,2.594,2.594,0,0,0,1.534-.461,2.56,2.56,0,0,0,.945-1.323l1.573.237a3.836,3.836,0,0,1-1.472,2.158A4.282,4.282,0,0,1,89.655,137.158Zm10.494-9.035a3.088,3.088,0,0,1,2.228.787,2.939,2.939,0,0,1,.822,2.228V137h-1.7v-5.484a1.976,1.976,0,0,0-.514-1.5,1.844,1.844,0,0,0-1.323-.488,2.066,2.066,0,0,0-1.521.584,2.384,2.384,0,0,0-.6,1.745V137H95.86v-8.7h1.688v1.072a2.817,2.817,0,0,1,1.094-.923A3.417,3.417,0,0,1,100.149,128.123Zm6.768-1.749a1.071,1.071,0,0,1-.778-.325,1.049,1.049,0,0,1-.33-.773,1.035,1.035,0,0,1,.33-.769,1.078,1.078,0,0,1,.778-.321,1.094,1.094,0,0,1,0,2.188ZM106.056,137v-8.7h1.7V137Zm7.523.167a4.249,4.249,0,0,1-2.382-.624,2.574,2.574,0,0,1-1.151-1.793l1.45-.413a1.872,1.872,0,0,0,.708,1.173,2.226,2.226,0,0,0,1.367.409,2.191,2.191,0,0,0,1.187-.3,1.017,1.017,0,0,0,.466-.962,1.334,1.334,0,0,0-.07-.387.727.727,0,0,0-.22-.312,3.514,3.514,0,0,0-.3-.233,1.918,1.918,0,0,0-.422-.2q-.281-.1-.461-.163t-.554-.167q-.374-.105-.576-.167a7.278,7.278,0,0,1-.879-.316,3.961,3.961,0,0,1-.721-.431,1.7,1.7,0,0,1-.554-.686,2.352,2.352,0,0,1-.185-.967,2.138,2.138,0,0,1,.879-1.859,3.776,3.776,0,0,1,2.25-.628,3.869,3.869,0,0,1,2.149.567,2.438,2.438,0,0,1,1.077,1.709l-1.362.334a1.626,1.626,0,0,0-.655-1.059,2.275,2.275,0,0,0-2.312-.062,1.052,1.052,0,0,0-.312,1.411,1.113,1.113,0,0,0,.448.378,4.111,4.111,0,0,0,.606.246q.308.1.756.211.123.026.185.044.5.123.835.233a5.249,5.249,0,0,1,.751.325,2.617,2.617,0,0,1,.672.475,2.124,2.124,0,0,1,.431.681,2.447,2.447,0,0,1,.176.949,2.63,2.63,0,0,1-.176.984,2.086,2.086,0,0,1-.479.734,2.636,2.636,0,0,1-.725.492,3.69,3.69,0,0,1-.892.286A5.476,5.476,0,0,1,113.579,137.167Zm8.429-.167a2.342,2.342,0,0,1-1.74-.637,2.428,2.428,0,0,1-.633-1.789v-4.948h-1.775V128.3h.642a1.291,1.291,0,0,0,.98-.316,1.56,1.56,0,0,0,.294-1.072v-1.5h1.556V128.3H123.3v1.327h-1.969V134.4a1.3,1.3,0,0,0,.321.94,1.122,1.122,0,0,0,.848.334h.8V137Zm5.379.167a3.515,3.515,0,0,1-1.332-.237,2.1,2.1,0,0,1-.958-.787,2.359,2.359,0,0,1-.374-1.358,2.527,2.527,0,0,1,.242-1.143,1.985,1.985,0,0,1,.721-.791,4.615,4.615,0,0,1,1.028-.492,8.947,8.947,0,0,1,1.314-.316l1.371-.237q.791-.149.791-.8a1.426,1.426,0,0,0-.527-1.226,2.152,2.152,0,0,0-1.318-.391,2.2,2.2,0,0,0-1.336.387,1.65,1.65,0,0,0-.624,1.2l-1.521-.308a2.742,2.742,0,0,1,1.121-1.9,4.2,4.2,0,0,1,2.439-.633,5.652,5.652,0,0,1,1.028.088,3.5,3.5,0,0,1,.918.308,2.561,2.561,0,0,1,.756.558,2.5,2.5,0,0,1,.5.87,3.6,3.6,0,0,1,.189,1.208V134.7a1.422,1.422,0,0,0,.2.883.841.841,0,0,0,.672.233h.132V137H132a1.49,1.49,0,0,1-1.687-1.169h-.079a2.953,2.953,0,0,1-1.244,1.011A4,4,0,0,1,127.387,137.167Zm.387-1.345a2.327,2.327,0,0,0,1.833-.8,3.163,3.163,0,0,0,.708-2.167l-2.276.466a2.9,2.9,0,0,0-1.257.453,1.042,1.042,0,0,0-.413.883,1.023,1.023,0,0,0,.391.879A1.661,1.661,0,0,0,127.773,135.822Z" transform="translate(758 1302)" fill="#00223d"/>
    <path id="Trazado_70500" data-name="Trazado 70500" d="M51.641,17V4.572h4.1a6.506,6.506,0,0,1,2.509.457,4.711,4.711,0,0,1,1.811,1.283,5.675,5.675,0,0,1,1.077,1.96,8.057,8.057,0,0,1,.369,2.5,7.725,7.725,0,0,1-.633,3.239A4.882,4.882,0,0,1,58.923,16.2a6.016,6.016,0,0,1-3.186.8Zm1.749-1.582h2.276a3.659,3.659,0,0,0,3-1.226,5.221,5.221,0,0,0,1.011-3.415,5.206,5.206,0,0,0-1.011-3.406,3.659,3.659,0,0,0-3-1.226H53.39ZM71.8,12.482l-.026.448H65.036a2.947,2.947,0,0,0,.809,2.118,2.637,2.637,0,0,0,1.907.738,2.513,2.513,0,0,0,1.389-.4,2.587,2.587,0,0,0,.949-1.107l1.529.3a3.865,3.865,0,0,1-1.49,1.894,4.15,4.15,0,0,1-2.36.69,4.3,4.3,0,0,1-3.177-1.208,4.471,4.471,0,0,1-1.208-3.309A4.481,4.481,0,0,1,64.6,9.34a4.215,4.215,0,0,1,3.12-1.217,4,4,0,0,1,2.962,1.116A4.42,4.42,0,0,1,71.8,12.482ZM67.725,9.406a2.484,2.484,0,0,0-2.619,2.241h5a2.451,2.451,0,0,0-.747-1.67A2.366,2.366,0,0,0,67.725,9.406ZM79.643,6.374a1.071,1.071,0,0,1-.778-.325,1.049,1.049,0,0,1-.33-.773,1.035,1.035,0,0,1,.33-.769,1.078,1.078,0,0,1,.778-.321,1.1,1.1,0,0,1,1.09,1.09,1.1,1.1,0,0,1-1.09,1.1ZM78.782,17V8.3h1.7V17Zm9.009-8.877a3.088,3.088,0,0,1,2.228.787,2.939,2.939,0,0,1,.822,2.228V17h-1.7V11.516a1.976,1.976,0,0,0-.514-1.5,1.844,1.844,0,0,0-1.323-.488,2.066,2.066,0,0,0-1.521.584,2.384,2.384,0,0,0-.6,1.745V17H83.5V8.3h1.688V9.371a2.817,2.817,0,0,1,1.094-.923A3.417,3.417,0,0,1,87.791,8.123Zm11.1.176h1.8L97.125,17h-1.45L92.124,8.3h1.793l2.487,6.75Zm10.9,4.184-.026.448h-6.741a2.947,2.947,0,0,0,.809,2.118,2.637,2.637,0,0,0,1.907.738,2.513,2.513,0,0,0,1.389-.4,2.587,2.587,0,0,0,.949-1.107l1.529.3a3.865,3.865,0,0,1-1.49,1.894,4.15,4.15,0,0,1-2.36.69,4.3,4.3,0,0,1-3.177-1.208,4.471,4.471,0,0,1-1.208-3.309,4.481,4.481,0,0,1,1.213-3.309,4.215,4.215,0,0,1,3.12-1.217,4,4,0,0,1,2.962,1.116A4.42,4.42,0,0,1,109.79,12.482Zm-4.078-3.076a2.484,2.484,0,0,0-2.619,2.241h5a2.451,2.451,0,0,0-.747-1.67A2.366,2.366,0,0,0,105.711,9.406Zm8.016.4a2.547,2.547,0,0,1,1.081-1.151A3.341,3.341,0,0,1,116.5,8.2V9.767a2.924,2.924,0,0,0-2.03.624,2.63,2.63,0,0,0-.686,2.03V17h-1.687V8.3h1.635Zm7.321,7.356a4.249,4.249,0,0,1-2.382-.624,2.574,2.574,0,0,1-1.151-1.793l1.45-.413a1.872,1.872,0,0,0,.708,1.173,2.226,2.226,0,0,0,1.367.409,2.191,2.191,0,0,0,1.187-.3,1.017,1.017,0,0,0,.466-.962,1.334,1.334,0,0,0-.07-.387.727.727,0,0,0-.22-.312,3.514,3.514,0,0,0-.3-.233,1.918,1.918,0,0,0-.422-.2q-.281-.1-.461-.163t-.554-.167q-.374-.105-.576-.167a7.278,7.278,0,0,1-.879-.316,3.961,3.961,0,0,1-.721-.431,1.7,1.7,0,0,1-.554-.686,2.352,2.352,0,0,1-.185-.967,2.138,2.138,0,0,1,.879-1.859,3.776,3.776,0,0,1,2.25-.628,3.869,3.869,0,0,1,2.149.567,2.438,2.438,0,0,1,1.077,1.709l-1.362.334a1.626,1.626,0,0,0-.655-1.059,2.275,2.275,0,0,0-2.312-.062,1.052,1.052,0,0,0-.312,1.411,1.113,1.113,0,0,0,.448.378,4.111,4.111,0,0,0,.606.246q.308.1.756.211.123.026.185.044.5.123.835.233a5.249,5.249,0,0,1,.751.325,2.617,2.617,0,0,1,.672.475,2.124,2.124,0,0,1,.431.681,2.447,2.447,0,0,1,.176.949,2.63,2.63,0,0,1-.176.984,2.086,2.086,0,0,1-.479.734,2.636,2.636,0,0,1-.725.492,3.69,3.69,0,0,1-.892.286A5.476,5.476,0,0,1,121.048,17.167Zm6.434-10.793a1.071,1.071,0,0,1-.778-.325,1.049,1.049,0,0,1-.33-.773,1.035,1.035,0,0,1,.33-.769,1.078,1.078,0,0,1,.778-.321,1.1,1.1,0,0,1,1.09,1.09,1.1,1.1,0,0,1-1.09,1.1ZM126.621,17V8.3h1.7V17Zm7.84-10.151,2.224-2.927.879.642-1.969,2.285Zm.615,10.318a4.274,4.274,0,0,1-4.456-4.526,4.456,4.456,0,1,1,8.9,0,4.423,4.423,0,0,1-1.248,3.292A4.356,4.356,0,0,1,135.076,17.167Zm-.018-1.389a2.6,2.6,0,0,0,2-.866,3.237,3.237,0,0,0,.791-2.272,3.221,3.221,0,0,0-.791-2.268,2.6,2.6,0,0,0-2-.861,2.556,2.556,0,0,0-1.978.861,3.243,3.243,0,0,0-.782,2.268,3.259,3.259,0,0,0,.782,2.272A2.55,2.55,0,0,0,135.058,15.778Zm11.057-7.655a3.088,3.088,0,0,1,2.228.787,2.939,2.939,0,0,1,.822,2.228V17h-1.7V11.516a1.976,1.976,0,0,0-.514-1.5,1.844,1.844,0,0,0-1.323-.488,2.066,2.066,0,0,0-1.521.584,2.384,2.384,0,0,0-.6,1.745V17h-1.687V8.3h1.688V9.371a2.817,2.817,0,0,1,1.094-.923A3.417,3.417,0,0,1,146.115,8.123ZM153.3,20.182h-1.23l1.081-5.5h1.758ZM56.857,33.5h1.688V47H56.919l-.044-1.582a3.032,3.032,0,0,1-1.213,1.292,3.493,3.493,0,0,1-1.8.475,3.987,3.987,0,0,1-2.887-1.222,4.181,4.181,0,0,1-.883-1.437,5.248,5.248,0,0,1-.325-1.876,4.974,4.974,0,0,1,.558-2.386,3.916,3.916,0,0,1,3.538-2.14,3.505,3.505,0,0,1,1.784.461,3.047,3.047,0,0,1,1.213,1.261ZM54.221,45.743a2.526,2.526,0,0,0,1.96-.883,3.47,3.47,0,0,0,0-4.417,2.535,2.535,0,0,0-1.956-.879,2.589,2.589,0,0,0-1.973.853,3.537,3.537,0,0,0,0,4.469A2.583,2.583,0,0,0,54.221,45.743Zm15.064-3.261-.026.448H62.518a2.947,2.947,0,0,0,.809,2.118,2.637,2.637,0,0,0,1.907.738,2.513,2.513,0,0,0,1.389-.4,2.587,2.587,0,0,0,.949-1.107l1.529.3a3.865,3.865,0,0,1-1.49,1.894,4.15,4.15,0,0,1-2.36.69,4.3,4.3,0,0,1-3.177-1.208,4.471,4.471,0,0,1-1.208-3.309,4.481,4.481,0,0,1,1.213-3.309,4.215,4.215,0,0,1,3.12-1.217,4,4,0,0,1,2.962,1.116A4.42,4.42,0,0,1,69.285,42.482Zm-4.078-3.076a2.484,2.484,0,0,0-2.619,2.241h5a2.451,2.451,0,0,0-.747-1.67A2.366,2.366,0,0,0,65.207,39.406ZM80,47.167a4.647,4.647,0,1,1,4.447-4.526A4.423,4.423,0,0,1,83.2,45.932,4.356,4.356,0,0,1,80,47.167Zm-.018-1.389a2.6,2.6,0,0,0,2-.866,3.652,3.652,0,0,0,0-4.54,2.6,2.6,0,0,0-2-.861A2.556,2.556,0,0,0,78,40.373a3.684,3.684,0,0,0,0,4.54A2.55,2.55,0,0,0,79.981,45.778Zm11.452-7.655a3.833,3.833,0,0,1,2.9,1.244,4.588,4.588,0,0,1,1.173,3.283,5.375,5.375,0,0,1-.321,1.89,4.11,4.11,0,0,1-.875,1.437,3.9,3.9,0,0,1-1.3.892,4,4,0,0,1-1.586.316,3.505,3.505,0,0,1-1.784-.461,3.06,3.06,0,0,1-1.213-1.252v5.889H86.749V38.3h1.626l.044,1.591A3.032,3.032,0,0,1,89.632,38.6,3.493,3.493,0,0,1,91.434,38.123Zm-.352,7.62a2.569,2.569,0,0,0,1.951-.844,3.571,3.571,0,0,0,0-4.482,2.671,2.671,0,0,0-3.929.035,3.436,3.436,0,0,0,0,4.408A2.562,2.562,0,0,0,91.082,45.743Zm14.476-3.261-.026.448H98.79a2.947,2.947,0,0,0,.809,2.118,2.637,2.637,0,0,0,1.907.738,2.513,2.513,0,0,0,1.389-.4,2.587,2.587,0,0,0,.949-1.107l1.529.3a3.865,3.865,0,0,1-1.49,1.894,4.15,4.15,0,0,1-2.36.69,4.3,4.3,0,0,1-3.177-1.208,4.471,4.471,0,0,1-1.208-3.309,4.481,4.481,0,0,1,1.213-3.309,4.215,4.215,0,0,1,3.12-1.217,4,4,0,0,1,2.962,1.116A4.42,4.42,0,0,1,105.558,42.482Zm-4.078-3.076a2.484,2.484,0,0,0-2.619,2.241h5a2.451,2.451,0,0,0-.747-1.67A2.366,2.366,0,0,0,101.479,39.406Zm8.016.4a2.547,2.547,0,0,1,1.081-1.151,3.341,3.341,0,0,1,1.688-.457v1.564a2.924,2.924,0,0,0-2.03.624,2.63,2.63,0,0,0-.686,2.03V47H107.86V38.3H109.5Zm6.434,7.356a3.515,3.515,0,0,1-1.332-.237,2.1,2.1,0,0,1-.958-.787,2.359,2.359,0,0,1-.374-1.358,2.527,2.527,0,0,1,.242-1.143,1.985,1.985,0,0,1,.721-.791,4.615,4.615,0,0,1,1.028-.492,8.947,8.947,0,0,1,1.314-.316l1.371-.237q.791-.149.791-.8a1.426,1.426,0,0,0-.527-1.226,2.152,2.152,0,0,0-1.318-.391,2.2,2.2,0,0,0-1.336.387,1.65,1.65,0,0,0-.624,1.2l-1.521-.308a2.742,2.742,0,0,1,1.121-1.9,4.2,4.2,0,0,1,2.439-.633,5.652,5.652,0,0,1,1.028.088,3.5,3.5,0,0,1,.918.308,2.561,2.561,0,0,1,.756.558,2.5,2.5,0,0,1,.5.87,3.6,3.6,0,0,1,.189,1.208V44.7a1.422,1.422,0,0,0,.2.883.841.841,0,0,0,.672.233h.132V47h-.817a1.49,1.49,0,0,1-1.687-1.169h-.079a2.953,2.953,0,0,1-1.244,1.011A4,4,0,0,1,115.929,47.167Zm.387-1.345a2.327,2.327,0,0,0,1.833-.8,3.163,3.163,0,0,0,.708-2.167l-2.276.466a2.9,2.9,0,0,0-1.257.453,1.042,1.042,0,0,0-.413.883,1.023,1.023,0,0,0,.391.879A1.661,1.661,0,0,0,116.315,45.822Zm10.626,1.336a4.265,4.265,0,0,1-3.16-1.252,4.908,4.908,0,0,1,0-6.53,4.632,4.632,0,0,1,5.73-.479,3.832,3.832,0,0,1,1.463,2.162L129.4,41.3a2.56,2.56,0,0,0-.945-1.323,2.594,2.594,0,0,0-1.534-.461,2.47,2.47,0,0,0-1.938.861,3.755,3.755,0,0,0,0,4.531,2.465,2.465,0,0,0,1.938.866,2.594,2.594,0,0,0,1.534-.461,2.56,2.56,0,0,0,.945-1.323l1.573.237A3.836,3.836,0,0,1,129.5,46.38,4.282,4.282,0,0,1,126.941,47.158Zm7.066-10.784a1.071,1.071,0,0,1-.778-.325,1.049,1.049,0,0,1-.33-.773,1.035,1.035,0,0,1,.33-.769,1.078,1.078,0,0,1,.778-.321,1.094,1.094,0,0,1,0,2.188ZM133.146,47V38.3h1.7V47Zm7.84-10.151,2.224-2.927.879.642-1.969,2.285Zm.615,10.318a4.647,4.647,0,1,1,4.447-4.526,4.423,4.423,0,0,1-1.248,3.292A4.356,4.356,0,0,1,141.6,47.167Zm-.018-1.389a2.6,2.6,0,0,0,2-.866,3.652,3.652,0,0,0,0-4.54,2.6,2.6,0,0,0-2-.861,2.556,2.556,0,0,0-1.978.861,3.684,3.684,0,0,0,0,4.54A2.55,2.55,0,0,0,141.584,45.778Zm11.057-7.655a3.088,3.088,0,0,1,2.228.787,2.939,2.939,0,0,1,.822,2.228V47h-1.7V41.516a1.976,1.976,0,0,0-.514-1.5,1.844,1.844,0,0,0-1.323-.488,2.066,2.066,0,0,0-1.521.584,2.384,2.384,0,0,0-.6,1.745V47h-1.687V38.3h1.688v1.072a2.817,2.817,0,0,1,1.094-.923A3.417,3.417,0,0,1,152.641,38.123Z" transform="translate(978 1336)" fill="#00223d"/>
    <path id="Trazado_70497" data-name="Trazado 70497" d="M10.032.288a8.632,8.632,0,0,0,6.936-3l-2.5-2.3a5.354,5.354,0,0,1-4.224,1.992A5.154,5.154,0,0,1,4.872-8.4a5.154,5.154,0,0,1,5.376-5.376,5.405,5.405,0,0,1,4.224,1.968l2.5-2.3a8.673,8.673,0,0,0-6.912-2.976c-5.232,0-9.12,3.624-9.12,8.688S4.824.288,10.032.288ZM24.432-13.1a9.926,9.926,0,0,0-5.568,1.56l1.344,2.616a6.208,6.208,0,0,1,3.72-1.2c2.016,0,2.976.936,2.976,2.544H23.928c-3.936,0-5.544,1.584-5.544,3.864,0,2.232,1.8,3.912,4.824,3.912,1.9,0,3.24-.624,3.936-1.8V0h3.5V-7.368C30.648-11.28,28.368-13.1,24.432-13.1ZM24.144-2.328c-1.32,0-2.112-.624-2.112-1.56,0-.864.552-1.512,2.3-1.512H26.9v1.32A2.759,2.759,0,0,1,24.144-2.328ZM41.664-13.1a5.017,5.017,0,0,0-4.056,1.68v-1.488H34.032V4.656h3.744V-1.368A5.013,5.013,0,0,0,41.664.192,6.271,6.271,0,0,0,48.1-6.456,6.271,6.271,0,0,0,41.664-13.1ZM41.016-2.88a3.259,3.259,0,0,1-3.288-3.576,3.259,3.259,0,0,1,3.288-3.576A3.259,3.259,0,0,1,44.3-6.456,3.259,3.259,0,0,1,41.016-2.88ZM52.464-14.712a2.153,2.153,0,0,0,2.328-2.16,2.1,2.1,0,0,0-2.328-2.016A2.14,2.14,0,0,0,50.136-16.8,2.14,2.14,0,0,0,52.464-14.712ZM50.592,0h3.744V-12.912H50.592ZM65.136-3.264a2.523,2.523,0,0,1-1.512.48,1.506,1.506,0,0,1-1.608-1.7V-9.744h3.216v-2.88H62.016v-3.144H58.272v3.144H56.28v2.88h1.992v5.3c0,3.072,1.776,4.632,4.824,4.632a5.351,5.351,0,0,0,3.048-.816Zm8.328-9.84a9.926,9.926,0,0,0-5.568,1.56L69.24-8.928a6.208,6.208,0,0,1,3.72-1.2c2.016,0,2.976.936,2.976,2.544H72.96c-3.936,0-5.544,1.584-5.544,3.864,0,2.232,1.8,3.912,4.824,3.912,1.9,0,3.24-.624,3.936-1.8V0h3.5V-7.368C79.68-11.28,77.4-13.1,73.464-13.1ZM73.176-2.328c-1.32,0-2.112-.624-2.112-1.56,0-.864.552-1.512,2.3-1.512h2.568v1.32A2.759,2.759,0,0,1,73.176-2.328ZM83.064,0h3.744V-17.808H83.064Zm19.872-6.408a6.392,6.392,0,0,0-6.72-6.7,6.574,6.574,0,0,0-6.888,6.648c0,3.84,2.9,6.648,7.368,6.648A6.763,6.763,0,0,0,102.024-1.9l-1.992-2.16a4.377,4.377,0,0,1-3.24,1.248A3.443,3.443,0,0,1,93.1-5.4h9.768C102.888-5.712,102.936-6.12,102.936-6.408Zm-6.7-3.864a3.068,3.068,0,0,1,3.168,2.688h-6.36A3.057,3.057,0,0,1,96.24-10.272ZM109.776.192c3.864,0,6.1-1.7,6.1-4.1,0-5.088-7.8-2.952-7.8-5.16,0-.672.72-1.2,2.4-1.2a7.415,7.415,0,0,1,3.72.96l1.248-2.664a10.617,10.617,0,0,0-4.968-1.128c-3.768,0-5.976,1.728-5.976,4.176,0,5.16,7.8,3,7.8,5.112,0,.72-.648,1.176-2.376,1.176a8.834,8.834,0,0,1-4.488-1.248L104.184-1.2A11.084,11.084,0,0,0,109.776.192Z" transform="translate(1025 1222.73)" fill="#fff"/>
    <path id="Trazado_70499" data-name="Trazado 70499" d="M78.72,17l-1.037-2.9H72.128L71.091,17H69.272L73.851,4.572H75.96L80.54,17Zm-6.047-4.43h4.465L74.906,6.3ZM87.536,8.3h1.8L85.769,17h-1.45L80.768,8.3h1.793l2.487,6.75Zm5.2,8.868a3.515,3.515,0,0,1-1.332-.237,2.1,2.1,0,0,1-.958-.787,2.359,2.359,0,0,1-.374-1.358,2.527,2.527,0,0,1,.242-1.143,1.985,1.985,0,0,1,.721-.791,4.615,4.615,0,0,1,1.028-.492,8.947,8.947,0,0,1,1.314-.316l1.371-.237q.791-.149.791-.8a1.426,1.426,0,0,0-.527-1.226A2.152,2.152,0,0,0,93.7,9.389a2.2,2.2,0,0,0-1.336.387,1.65,1.65,0,0,0-.624,1.2l-1.521-.308a2.742,2.742,0,0,1,1.121-1.9,4.2,4.2,0,0,1,2.439-.633,5.653,5.653,0,0,1,1.028.088,3.5,3.5,0,0,1,.918.308,2.561,2.561,0,0,1,.756.558,2.5,2.5,0,0,1,.5.87,3.6,3.6,0,0,1,.189,1.208V14.7a1.422,1.422,0,0,0,.2.883.841.841,0,0,0,.672.233h.132V17h-.817a1.49,1.49,0,0,1-1.687-1.169h-.079a2.953,2.953,0,0,1-1.244,1.011A4,4,0,0,1,92.739,17.167Zm.387-1.345a2.327,2.327,0,0,0,1.833-.8,3.163,3.163,0,0,0,.708-2.167l-2.276.466a2.9,2.9,0,0,0-1.257.453,1.042,1.042,0,0,0-.413.883,1.023,1.023,0,0,0,.391.879A1.661,1.661,0,0,0,93.125,15.822Zm11.426-7.7a3.088,3.088,0,0,1,2.228.787,2.939,2.939,0,0,1,.822,2.228V17h-1.7V11.516a1.976,1.976,0,0,0-.514-1.5,1.844,1.844,0,0,0-1.323-.488,2.066,2.066,0,0,0-1.521.584,2.384,2.384,0,0,0-.6,1.745V17h-1.687V8.3h1.688V9.371a2.817,2.817,0,0,1,1.094-.923A3.417,3.417,0,0,1,104.551,8.123Zm9.571,9.035a4.265,4.265,0,0,1-3.16-1.252,4.433,4.433,0,0,1-1.244-3.265,4.433,4.433,0,0,1,1.244-3.265,4.632,4.632,0,0,1,5.73-.479,3.832,3.832,0,0,1,1.463,2.162l-1.573.237a2.56,2.56,0,0,0-.945-1.323,2.594,2.594,0,0,0-1.534-.461,2.47,2.47,0,0,0-1.938.861,3.3,3.3,0,0,0-.76,2.268,3.3,3.3,0,0,0,.76,2.263,2.465,2.465,0,0,0,1.938.866,2.594,2.594,0,0,0,1.534-.461,2.56,2.56,0,0,0,.945-1.323l1.573.237a3.836,3.836,0,0,1-1.472,2.158A4.282,4.282,0,0,1,114.123,17.158Zm13.922-4.676-.026.448h-6.741a2.947,2.947,0,0,0,.809,2.118,2.637,2.637,0,0,0,1.907.738,2.513,2.513,0,0,0,1.389-.4,2.587,2.587,0,0,0,.949-1.107l1.529.3a3.865,3.865,0,0,1-1.49,1.894,4.15,4.15,0,0,1-2.36.69,4.3,4.3,0,0,1-3.177-1.208,4.471,4.471,0,0,1-1.208-3.309,4.481,4.481,0,0,1,1.213-3.309,4.215,4.215,0,0,1,3.12-1.217,4,4,0,0,1,2.962,1.116A4.42,4.42,0,0,1,128.044,12.482Zm-4.078-3.076a2.484,2.484,0,0,0-2.619,2.241h5a2.451,2.451,0,0,0-.747-1.67A2.366,2.366,0,0,0,123.966,9.406Zm9.185,7.761a4.249,4.249,0,0,1-2.382-.624,2.574,2.574,0,0,1-1.151-1.793l1.45-.413a1.872,1.872,0,0,0,.708,1.173,2.226,2.226,0,0,0,1.367.409,2.191,2.191,0,0,0,1.187-.3,1.017,1.017,0,0,0,.466-.962,1.334,1.334,0,0,0-.07-.387.727.727,0,0,0-.22-.312,3.514,3.514,0,0,0-.3-.233,1.918,1.918,0,0,0-.422-.2q-.281-.1-.461-.163t-.554-.167q-.374-.105-.576-.167a7.278,7.278,0,0,1-.879-.316,3.961,3.961,0,0,1-.721-.431,1.7,1.7,0,0,1-.554-.686,2.352,2.352,0,0,1-.185-.967,2.138,2.138,0,0,1,.879-1.859,3.776,3.776,0,0,1,2.25-.628,3.869,3.869,0,0,1,2.149.567,2.438,2.438,0,0,1,1.077,1.709l-1.362.334a1.626,1.626,0,0,0-.655-1.059,2.275,2.275,0,0,0-2.312-.062,1.052,1.052,0,0,0-.312,1.411,1.113,1.113,0,0,0,.448.378,4.111,4.111,0,0,0,.606.246q.308.1.756.211.123.026.185.044.5.123.835.233a5.249,5.249,0,0,1,.751.325,2.617,2.617,0,0,1,.672.475,2.124,2.124,0,0,1,.431.681,2.447,2.447,0,0,1,.176.949,2.63,2.63,0,0,1-.176.984,2.086,2.086,0,0,1-.479.734,2.636,2.636,0,0,1-.725.492,3.69,3.69,0,0,1-.892.286A5.476,5.476,0,0,1,133.151,17.167ZM54.2,47a2.342,2.342,0,0,1-1.74-.637,2.428,2.428,0,0,1-.633-1.789V39.626H50.05V38.3h.642a1.291,1.291,0,0,0,.98-.316,1.56,1.56,0,0,0,.294-1.072v-1.5h1.556V38.3h1.969v1.327H53.522V44.4a1.3,1.3,0,0,0,.321.94,1.122,1.122,0,0,0,.848.334h.8V47Zm11.074-4.518-.026.448H58.505a2.947,2.947,0,0,0,.809,2.118,2.637,2.637,0,0,0,1.907.738,2.513,2.513,0,0,0,1.389-.4,2.587,2.587,0,0,0,.949-1.107l1.529.3a3.865,3.865,0,0,1-1.49,1.894,4.15,4.15,0,0,1-2.36.69,4.3,4.3,0,0,1-3.177-1.208,4.471,4.471,0,0,1-1.208-3.309,4.481,4.481,0,0,1,1.213-3.309,4.215,4.215,0,0,1,3.12-1.217,4,4,0,0,1,2.962,1.116A4.42,4.42,0,0,1,65.273,42.482Zm-4.078-3.076a2.484,2.484,0,0,0-2.619,2.241h5a2.451,2.451,0,0,0-.747-1.67A2.366,2.366,0,0,0,61.195,39.406Zm10.046,7.752a4.265,4.265,0,0,1-3.16-1.252,4.908,4.908,0,0,1,0-6.53,4.632,4.632,0,0,1,5.73-.479,3.832,3.832,0,0,1,1.463,2.162L73.7,41.3a2.56,2.56,0,0,0-.945-1.323,2.594,2.594,0,0,0-1.534-.461,2.47,2.47,0,0,0-1.938.861,3.755,3.755,0,0,0,0,4.531,2.465,2.465,0,0,0,1.938.866,2.594,2.594,0,0,0,1.534-.461,2.56,2.56,0,0,0,.945-1.323l1.573.237A3.836,3.836,0,0,1,73.8,46.38,4.282,4.282,0,0,1,71.241,47.158Zm10.494-9.035a3.088,3.088,0,0,1,2.228.787,2.939,2.939,0,0,1,.822,2.228V47h-1.7V41.516a1.976,1.976,0,0,0-.514-1.5,1.844,1.844,0,0,0-1.323-.488,2.066,2.066,0,0,0-1.521.584,2.384,2.384,0,0,0-.6,1.745V47H77.446V38.3h1.688v1.072a2.817,2.817,0,0,1,1.094-.923A3.417,3.417,0,0,1,81.735,38.123Zm9.642,9.044a4.647,4.647,0,1,1,4.447-4.526,4.423,4.423,0,0,1-1.248,3.292A4.356,4.356,0,0,1,91.376,47.167Zm-.018-1.389a2.6,2.6,0,0,0,2-.866,3.652,3.652,0,0,0,0-4.54,2.6,2.6,0,0,0-2-.861,2.556,2.556,0,0,0-1.978.861,3.684,3.684,0,0,0,0,4.54A2.55,2.55,0,0,0,91.359,45.778ZM98.126,47V33.5h1.7V47Zm7.84-10.151,2.224-2.927.879.642L107.1,36.849Zm.615,10.318a4.647,4.647,0,1,1,4.447-4.526,4.423,4.423,0,0,1-1.248,3.292A4.356,4.356,0,0,1,106.582,47.167Zm-.018-1.389a2.6,2.6,0,0,0,2-.866,3.652,3.652,0,0,0,0-4.54,2.6,2.6,0,0,0-2-.861,2.556,2.556,0,0,0-1.978.861,3.684,3.684,0,0,0,0,4.54A2.55,2.55,0,0,0,106.564,45.778ZM119.581,38.3h1.626v8.218a4.757,4.757,0,0,1-1.138,3.432,4.783,4.783,0,0,1-7.44-1.49l1.406-.668a2.792,2.792,0,0,0,2.813,1.96,2.437,2.437,0,0,0,1.991-.822,3.517,3.517,0,0,0,.681-2.307V45.1a3.025,3.025,0,0,1-1.213,1.191,3.573,3.573,0,0,1-1.775.453,3.779,3.779,0,0,1-1.538-.321,3.9,3.9,0,0,1-1.266-.883,4.144,4.144,0,0,1-.853-1.375,4.768,4.768,0,0,1-.316-1.745,4.273,4.273,0,0,1,1.165-3.085,3.772,3.772,0,0,1,2.826-1.213,3.527,3.527,0,0,1,1.793.466,2.986,2.986,0,0,1,1.2,1.239Zm-2.663,7.022a2.545,2.545,0,0,0,1.938-.857,3.034,3.034,0,0,0,0-4.091,2.647,2.647,0,0,0-3.872-.022,3.1,3.1,0,0,0,0,4.135A2.552,2.552,0,0,0,116.917,45.321Zm8.174-8.947a1.071,1.071,0,0,1-.778-.325,1.049,1.049,0,0,1-.33-.773,1.035,1.035,0,0,1,.33-.769,1.078,1.078,0,0,1,.778-.321,1.094,1.094,0,0,1,0,2.188ZM124.23,47V38.3h1.7V47Zm8.385.158a4.265,4.265,0,0,1-3.16-1.252,4.908,4.908,0,0,1,0-6.53,4.632,4.632,0,0,1,5.73-.479,3.832,3.832,0,0,1,1.463,2.162l-1.573.237a2.56,2.56,0,0,0-.945-1.323,2.594,2.594,0,0,0-1.534-.461,2.47,2.47,0,0,0-1.938.861,3.755,3.755,0,0,0,0,4.531,2.465,2.465,0,0,0,1.938.866,2.594,2.594,0,0,0,1.534-.461,2.56,2.56,0,0,0,.945-1.323l1.573.237a3.836,3.836,0,0,1-1.472,2.158A4.282,4.282,0,0,1,132.615,47.158Zm9.94.009A4.647,4.647,0,1,1,147,42.641a4.423,4.423,0,0,1-1.248,3.292A4.356,4.356,0,0,1,142.555,47.167Zm-.018-1.389a2.6,2.6,0,0,0,2-.866,3.652,3.652,0,0,0,0-4.54,2.6,2.6,0,0,0-2-.861,2.556,2.556,0,0,0-1.978.861,3.684,3.684,0,0,0,0,4.54A2.55,2.55,0,0,0,142.538,45.778Zm9.571,1.389a4.249,4.249,0,0,1-2.382-.624,2.574,2.574,0,0,1-1.151-1.793l1.45-.413a1.872,1.872,0,0,0,.708,1.173,2.226,2.226,0,0,0,1.367.409,2.191,2.191,0,0,0,1.187-.3,1.017,1.017,0,0,0,.466-.962,1.334,1.334,0,0,0-.07-.387.727.727,0,0,0-.22-.312,3.514,3.514,0,0,0-.3-.233,1.918,1.918,0,0,0-.422-.2q-.281-.1-.461-.163t-.554-.167q-.374-.105-.576-.167a7.278,7.278,0,0,1-.879-.316,3.961,3.961,0,0,1-.721-.431,1.7,1.7,0,0,1-.554-.686,2.352,2.352,0,0,1-.185-.967,2.138,2.138,0,0,1,.879-1.859,3.776,3.776,0,0,1,2.25-.628,3.869,3.869,0,0,1,2.149.567,2.438,2.438,0,0,1,1.077,1.709l-1.362.334a1.626,1.626,0,0,0-.655-1.059,2.275,2.275,0,0,0-2.312-.062,1.052,1.052,0,0,0-.312,1.411,1.113,1.113,0,0,0,.448.378,4.111,4.111,0,0,0,.606.246q.308.1.756.211.123.026.185.044.5.123.835.233a5.249,5.249,0,0,1,.751.325,2.617,2.617,0,0,1,.672.475,2.124,2.124,0,0,1,.431.681,2.447,2.447,0,0,1,.176.949,2.63,2.63,0,0,1-.176.984,2.086,2.086,0,0,1-.479.734,2.636,2.636,0,0,1-.725.492,3.69,3.69,0,0,1-.892.286A5.476,5.476,0,0,1,152.109,47.167Z" transform="translate(1216 1336)" fill="#00223d"/>
    <path id="Trazado_70498" data-name="Trazado 70498" d="M5.472,0H9.36V-13.632h5.376V-16.8H.1v3.168H5.472ZM27.888-6.408a6.392,6.392,0,0,0-6.72-6.7A6.574,6.574,0,0,0,14.28-6.456c0,3.84,2.9,6.648,7.368,6.648A6.763,6.763,0,0,0,26.976-1.9l-1.992-2.16a4.377,4.377,0,0,1-3.24,1.248,3.443,3.443,0,0,1-3.7-2.592h9.768C27.84-5.712,27.888-6.12,27.888-6.408Zm-6.7-3.864A3.068,3.068,0,0,1,24.36-7.584H18A3.057,3.057,0,0,1,21.192-10.272ZM36.624.192c2.712,0,4.848-1.2,5.784-3.264L39.5-4.656A3.177,3.177,0,0,1,36.6-2.88a3.3,3.3,0,0,1-3.384-3.576A3.3,3.3,0,0,1,36.6-10.032a3.22,3.22,0,0,1,2.9,1.776l2.9-1.56c-.936-2.112-3.072-3.288-5.784-3.288-4.2,0-7.2,2.76-7.2,6.648S32.424.192,36.624.192ZM52.416-13.1a5.653,5.653,0,0,0-4.272,1.7v-1.512H44.568V0h3.744V-6.384c0-2.376,1.3-3.48,3.1-3.48,1.656,0,2.616.96,2.616,3.048V0h3.744V-7.392C57.768-11.328,55.464-13.1,52.416-13.1ZM67.44.192c4.1,0,7.08-2.76,7.08-6.648S71.544-13.1,67.44-13.1s-7.1,2.76-7.1,6.648S63.336.192,67.44.192Zm0-3.072a3.276,3.276,0,0,1-3.312-3.576,3.276,3.276,0,0,1,3.312-3.576,3.259,3.259,0,0,1,3.288,3.576A3.259,3.259,0,0,1,67.44-2.88ZM77.016,0H80.76V-17.808H77.016ZM88.152-14.568H91.08l4.344-3.456H91.392ZM90.384.192c4.1,0,7.08-2.76,7.08-6.648S94.488-13.1,90.384-13.1s-7.1,2.76-7.1,6.648S86.28.192,90.384.192Zm0-3.072a3.276,3.276,0,0,1-3.312-3.576,3.276,3.276,0,0,1,3.312-3.576,3.259,3.259,0,0,1,3.288,3.576A3.259,3.259,0,0,1,90.384-2.88Zm19.344-10.032v1.656a5.183,5.183,0,0,0-4.272-1.848A6.147,6.147,0,0,0,99-6.864a6.147,6.147,0,0,0,6.456,6.24,5.316,5.316,0,0,0,4.08-1.608v.552c0,2.328-1.152,3.528-3.792,3.528a7.717,7.717,0,0,1-4.56-1.464L99.7,3.072a10.637,10.637,0,0,0,6.336,1.776c4.656,0,7.248-2.208,7.248-7.008V-12.912ZM106.2-3.7a3.155,3.155,0,0,1-3.408-3.168,3.155,3.155,0,0,1,3.408-3.168,3.135,3.135,0,0,1,3.384,3.168A3.135,3.135,0,0,1,106.2-3.7Zm12.432-11.016a2.153,2.153,0,0,0,2.328-2.16,2.1,2.1,0,0,0-2.328-2.016A2.14,2.14,0,0,0,116.3-16.8,2.14,2.14,0,0,0,118.632-14.712ZM116.76,0H120.5V-12.912H116.76Zm13.464.192c2.712,0,4.848-1.2,5.784-3.264l-2.9-1.584a3.177,3.177,0,0,1-2.9,1.776,3.3,3.3,0,0,1-3.384-3.576,3.3,3.3,0,0,1,3.384-3.576,3.22,3.22,0,0,1,2.9,1.776l2.9-1.56c-.936-2.112-3.072-3.288-5.784-3.288-4.2,0-7.2,2.76-7.2,6.648S126.024.192,130.224.192Zm13.92,0c4.1,0,7.08-2.76,7.08-6.648s-2.976-6.648-7.08-6.648-7.1,2.76-7.1,6.648S140.04.192,144.144.192Zm0-3.072a3.276,3.276,0,0,1-3.312-3.576,3.276,3.276,0,0,1,3.312-3.576,3.259,3.259,0,0,1,3.288,3.576A3.259,3.259,0,0,1,144.144-2.88ZM158.064.192c3.864,0,6.1-1.7,6.1-4.1,0-5.088-7.8-2.952-7.8-5.16,0-.672.72-1.2,2.4-1.2a7.415,7.415,0,0,1,3.72.96l1.248-2.664A10.617,10.617,0,0,0,158.76-13.1c-3.768,0-5.976,1.728-5.976,4.176,0,5.16,7.8,3,7.8,5.112,0,.72-.648,1.176-2.376,1.176a8.834,8.834,0,0,1-4.488-1.248L152.472-1.2A11.085,11.085,0,0,0,158.064.192Z" transform="translate(1237 1222.73)" fill="#fff"/>
  </g>
</svg>
