<svg xmlns="http://www.w3.org/2000/svg" width="929" height="519.828" viewBox="0 0 929 519.828">
  <g id="Grupo_32538" data-name="Grupo 32538" transform="translate(-495 -2385.172)">
    <path id="Trazado_70541" data-name="Trazado 70541" d="M12.434-21.645l-2.66,3.129H7.7l3.07-4.312ZM13.523,0l-1.23-3.492H5.18L3.949,0H.352L6.586-16.934h4.3L17.121,0ZM6.211-6.434h5.051l-2.52-7.184ZM28.605,0,24.2-7.453H23.18V0H19.664V-16.934H25.8a7.1,7.1,0,0,1,2.461.393,4.255,4.255,0,0,1,1.705,1.09,4.667,4.667,0,0,1,.961,1.6,5.851,5.851,0,0,1,.322,1.98,4.135,4.135,0,0,1-.926,2.783,4.665,4.665,0,0,1-2.66,1.459L32.766,0ZM23.18-14.016v4.043h2.074q2.637,0,2.637-2.016a1.835,1.835,0,0,0-.645-1.488,3.065,3.065,0,0,0-1.992-.539Zm21.984.176H38.883V-10h5.566v3.059H38.883v3.832h6.281V0h-9.82V-16.934h9.82ZM60.117,0l-1.23-3.492H51.773L50.543,0h-3.6L53.18-16.934h4.3L63.715,0ZM52.8-6.434h5.051l-2.52-7.184ZM71.883.234a8.181,8.181,0,0,1-4.7-1.295A5.193,5.193,0,0,1,64.9-4.687l3.633-.832A3.085,3.085,0,0,0,69.65-3.381a3.714,3.714,0,0,0,2.373.744,3.065,3.065,0,0,0,1.852-.521,1.759,1.759,0,0,0,.7-1.541,1.643,1.643,0,0,0-.6-1.254,3.905,3.905,0,0,0-1.189-.768q-.592-.229-1.9-.627-.176-.059-.258-.082-.668-.211-1.078-.352t-1.014-.393a6.75,6.75,0,0,1-.984-.492,7.207,7.207,0,0,1-.814-.609,3.192,3.192,0,0,1-.68-.779,4.14,4.14,0,0,1-.41-.973,4.293,4.293,0,0,1-.164-1.207,4.533,4.533,0,0,1,.791-2.666,4.845,4.845,0,0,1,2.133-1.7,7.763,7.763,0,0,1,3.053-.568,9.643,9.643,0,0,1,2.209.246,7.737,7.737,0,0,1,1.975.756,4.837,4.837,0,0,1,1.576,1.395,5.244,5.244,0,0,1,.9,2.057l-3.4.844A2.753,2.753,0,0,0,71.672-14.3a3.336,3.336,0,0,0-1.887.492,1.668,1.668,0,0,0-.738,1.488q0,.926,1.23,1.5a18.336,18.336,0,0,0,2.355.809q.691.211,1.125.352t1.09.41a7.573,7.573,0,0,1,1.066.521,7.891,7.891,0,0,1,.891.65,3.5,3.5,0,0,1,.756.844,4.562,4.562,0,0,1,.463,1.049,4.383,4.383,0,0,1,.188,1.307,5.134,5.134,0,0,1-.34,1.91,4.157,4.157,0,0,1-.932,1.441,5.41,5.41,0,0,1-1.4.99,6.794,6.794,0,0,1-1.723.586A9.908,9.908,0,0,1,71.883.234ZM87.691,0V-16.934H93.82a9.555,9.555,0,0,1,3.533.609A6.508,6.508,0,0,1,99.885-14.6a7.52,7.52,0,0,1,1.5,2.666,11.007,11.007,0,0,1,.51,3.457A11.048,11.048,0,0,1,101.385-5a7.52,7.52,0,0,1-1.5,2.666A6.508,6.508,0,0,1,97.354-.609,9.555,9.555,0,0,1,93.82,0Zm3.516-3.105h2.438a4.16,4.16,0,0,0,3.422-1.377,6.172,6.172,0,0,0,1.125-3.99,6.172,6.172,0,0,0-1.125-3.99,4.16,4.16,0,0,0-3.422-1.377H91.207Zm23.8-10.734h-6.281V-10h5.566v3.059h-5.566v3.832h6.281V0h-9.82V-16.934h9.82ZM128.379-3.105h5.309V0h-8.824V-16.934h3.516ZM148.16,0l-1.23-3.492h-7.113L138.586,0h-3.6l6.234-16.934h4.3L151.758,0Zm-7.312-6.434H145.9l-2.52-7.184ZM171.867,0l-1.23-3.492h-7.113L162.293,0h-3.6l6.234-16.934h4.3L175.465,0Zm-7.312-6.434h5.051l-2.52-7.184ZM178.008,0V-16.934h6.129a9.555,9.555,0,0,1,3.533.609A6.508,6.508,0,0,1,190.2-14.6a7.52,7.52,0,0,1,1.5,2.666,11.007,11.007,0,0,1,.51,3.457A11.048,11.048,0,0,1,191.7-5a7.52,7.52,0,0,1-1.5,2.666A6.508,6.508,0,0,1,187.67-.609,9.555,9.555,0,0,1,184.137,0Zm3.516-3.105h2.438a4.16,4.16,0,0,0,3.422-1.377,6.172,6.172,0,0,0,1.125-3.99,6.172,6.172,0,0,0-1.125-3.99,4.16,4.16,0,0,0-3.422-1.377h-2.437ZM214.91,0h-3.5l-1.113-12.762L206,0H203.73l-4.289-12.762L198.316,0H194.8l1.418-16.934h5.016L204.844-6.3,208.5-16.934h5.016Zm3.68,0V-16.934h3.516V0Zm19.453-16.934h3.5V0H237.48l-7.5-12.105V0h-3.5V-16.934h4.02L238.043-4.9ZM245.93,0V-16.934h3.516V0Zm13.512.234a8.181,8.181,0,0,1-4.7-1.295,5.193,5.193,0,0,1-2.285-3.627l3.633-.832a3.085,3.085,0,0,0,1.119,2.139,3.714,3.714,0,0,0,2.373.744,3.065,3.065,0,0,0,1.852-.521,1.759,1.759,0,0,0,.7-1.541,1.643,1.643,0,0,0-.6-1.254,3.905,3.905,0,0,0-1.189-.768q-.592-.229-1.9-.627-.176-.059-.258-.082-.668-.211-1.078-.352T256.1-8.174a6.75,6.75,0,0,1-.984-.492,7.207,7.207,0,0,1-.814-.609,3.192,3.192,0,0,1-.68-.779,4.14,4.14,0,0,1-.41-.973,4.293,4.293,0,0,1-.164-1.207,4.533,4.533,0,0,1,.791-2.666,4.845,4.845,0,0,1,2.133-1.7,7.763,7.763,0,0,1,3.053-.568,9.643,9.643,0,0,1,2.209.246,7.737,7.737,0,0,1,1.975.756,4.837,4.837,0,0,1,1.576,1.395,5.244,5.244,0,0,1,.9,2.057l-3.4.844A2.753,2.753,0,0,0,259.23-14.3a3.336,3.336,0,0,0-1.887.492,1.668,1.668,0,0,0-.738,1.488q0,.926,1.23,1.5a18.336,18.336,0,0,0,2.355.809q.691.211,1.125.352t1.09.41a7.573,7.573,0,0,1,1.066.521,7.891,7.891,0,0,1,.891.65,3.5,3.5,0,0,1,.756.844,4.562,4.562,0,0,1,.463,1.049,4.383,4.383,0,0,1,.188,1.307,5.134,5.134,0,0,1-.34,1.91,4.157,4.157,0,0,1-.932,1.441,5.41,5.41,0,0,1-1.4.99,6.794,6.794,0,0,1-1.723.586A9.908,9.908,0,0,1,259.441.234Zm19.324-17.168v3.094h-4.02V0h-3.48V-13.84h-4.043v-3.094ZM290.367,0l-4.406-7.453h-1.02V0h-3.516V-16.934h6.141a7.1,7.1,0,0,1,2.461.393,4.255,4.255,0,0,1,1.705,1.09,4.667,4.667,0,0,1,.961,1.6,5.851,5.851,0,0,1,.322,1.98,4.135,4.135,0,0,1-.926,2.783,4.665,4.665,0,0,1-2.66,1.459L294.527,0Zm-5.426-14.016v4.043h2.074q2.637,0,2.637-2.016a1.835,1.835,0,0,0-.645-1.488,3.065,3.065,0,0,0-1.992-.539ZM308.578,0l-1.23-3.492h-7.113L299,0h-3.6l6.234-16.934h4.3L312.176,0Zm-7.312-6.434h5.051l-2.52-7.184ZM321.375.234a9.452,9.452,0,0,1-3.451-.621,8.116,8.116,0,0,1-2.748-1.734,7.818,7.818,0,0,1-1.8-2.754,9.6,9.6,0,0,1-.656-3.6,9.172,9.172,0,0,1,1.125-4.6,7.659,7.659,0,0,1,3.088-3.041,9.246,9.246,0,0,1,4.447-1.055,8.986,8.986,0,0,1,4.969,1.371,7.506,7.506,0,0,1,3.035,3.773l-3.281,1.2a4.639,4.639,0,0,0-1.816-2.285,5.188,5.188,0,0,0-2.906-.82,4.974,4.974,0,0,0-3.7,1.477,5.433,5.433,0,0,0-1.453,3.984,5.441,5.441,0,0,0,1.459,3.99A4.968,4.968,0,0,0,321.375-3a5.169,5.169,0,0,0,2.9-.826A4.66,4.66,0,0,0,326.1-6.117l3.281,1.2a7.536,7.536,0,0,1-3.035,3.779A8.957,8.957,0,0,1,321.375.234ZM332.262,0V-16.934h3.516V0Zm14.344-18.516,3.07-4.312,1.664,1.184-2.66,3.129ZM347.648.234A9.2,9.2,0,0,1,343.2-.826a7.688,7.688,0,0,1-3.088-3.053,9.181,9.181,0,0,1-1.125-4.594,9.172,9.172,0,0,1,1.125-4.6,7.659,7.659,0,0,1,3.088-3.041,9.246,9.246,0,0,1,4.447-1.055,9.212,9.212,0,0,1,4.441,1.055,7.669,7.669,0,0,1,3.082,3.041,9.172,9.172,0,0,1,1.125,4.6,9.181,9.181,0,0,1-1.125,4.594,7.688,7.688,0,0,1-3.088,3.053A9.18,9.18,0,0,1,347.648.234Zm-3.7-4.705a4.963,4.963,0,0,0,3.7,1.482,4.963,4.963,0,0,0,3.7-1.482,5.47,5.47,0,0,0,1.453-4,5.433,5.433,0,0,0-1.453-3.984,4.974,4.974,0,0,0-3.7-1.477,4.974,4.974,0,0,0-3.7,1.477,5.433,5.433,0,0,0-1.453,3.984A5.47,5.47,0,0,0,343.945-4.471ZM371.1-16.934h3.5V0h-4.066l-7.5-12.105V0h-3.5V-16.934h4.02L371.1-4.9ZM385.219,0V-16.934h6.129a9.555,9.555,0,0,1,3.533.609,6.508,6.508,0,0,1,2.531,1.729,7.52,7.52,0,0,1,1.5,2.666,11.007,11.007,0,0,1,.51,3.457A11.048,11.048,0,0,1,398.912-5a7.52,7.52,0,0,1-1.5,2.666,6.508,6.508,0,0,1-2.531,1.729A9.555,9.555,0,0,1,391.348,0Zm3.516-3.105h2.438a4.16,4.16,0,0,0,3.422-1.377,6.172,6.172,0,0,0,1.125-3.99,6.172,6.172,0,0,0-1.125-3.99,4.16,4.16,0,0,0-3.422-1.377h-2.437Zm23.8-10.734h-6.281V-10h5.566v3.059h-5.566v3.832h6.281V0h-9.82V-16.934h9.82Zm19.676,0H425.93V-10H431.5v3.059H425.93v3.832h6.281V0h-9.82V-16.934h9.82ZM455.238,0h-3.5l-1.113-12.762L446.332,0h-2.273L439.77-12.762,438.645,0h-3.516l1.418-16.934h5.016L445.172-6.3l3.656-10.629h5.016Zm10.723-16.934a5.1,5.1,0,0,1,3.9,1.576,5.483,5.483,0,0,1,1.477,3.9,5.348,5.348,0,0,1-1.465,3.873,5.189,5.189,0,0,1-3.914,1.518h-3.527V0h-3.516V-16.934Zm-.586,7.922a2.584,2.584,0,0,0,1.934-.662,2.518,2.518,0,0,0,.645-1.834,2.5,2.5,0,0,0-.65-1.811,2.56,2.56,0,0,0-1.928-.674h-2.941v4.98ZM483.234,0l-4.406-7.453h-1.02V0h-3.516V-16.934h6.141a7.1,7.1,0,0,1,2.461.393,4.255,4.255,0,0,1,1.705,1.09,4.667,4.667,0,0,1,.961,1.6,5.851,5.851,0,0,1,.322,1.98,4.135,4.135,0,0,1-.926,2.783,4.665,4.665,0,0,1-2.66,1.459L487.395,0Zm-5.426-14.016v4.043h2.074q2.637,0,2.637-2.016a1.835,1.835,0,0,0-.645-1.488,3.065,3.065,0,0,0-1.992-.539Zm21.984.176h-6.281V-10h5.566v3.059h-5.566v3.832h6.281V0h-9.82V-16.934h9.82ZM509.039.234a8.181,8.181,0,0,1-4.7-1.295,5.193,5.193,0,0,1-2.285-3.627l3.633-.832a3.085,3.085,0,0,0,1.119,2.139,3.714,3.714,0,0,0,2.373.744,3.065,3.065,0,0,0,1.852-.521,1.759,1.759,0,0,0,.7-1.541,1.643,1.643,0,0,0-.6-1.254,3.905,3.905,0,0,0-1.189-.768q-.592-.229-1.9-.627-.176-.059-.258-.082-.668-.211-1.078-.352t-1.014-.393a6.75,6.75,0,0,1-.984-.492,7.207,7.207,0,0,1-.814-.609,3.192,3.192,0,0,1-.68-.779,4.14,4.14,0,0,1-.41-.973,4.293,4.293,0,0,1-.164-1.207,4.533,4.533,0,0,1,.791-2.666,4.845,4.845,0,0,1,2.133-1.7,7.763,7.763,0,0,1,3.053-.568,9.643,9.643,0,0,1,2.209.246,7.737,7.737,0,0,1,1.975.756,4.837,4.837,0,0,1,1.576,1.395,5.244,5.244,0,0,1,.9,2.057l-3.4.844a2.753,2.753,0,0,0-3.047-2.426,3.336,3.336,0,0,0-1.887.492,1.668,1.668,0,0,0-.738,1.488q0,.926,1.23,1.5a18.336,18.336,0,0,0,2.355.809q.691.211,1.125.352t1.09.41a7.573,7.573,0,0,1,1.066.521,7.891,7.891,0,0,1,.891.65,3.5,3.5,0,0,1,.756.844,4.562,4.562,0,0,1,.463,1.049,4.383,4.383,0,0,1,.188,1.307,5.134,5.134,0,0,1-.34,1.91,4.157,4.157,0,0,1-.932,1.441,5.41,5.41,0,0,1-1.4.99,6.794,6.794,0,0,1-1.723.586A9.908,9.908,0,0,1,509.039.234ZM529.945,0l-1.23-3.492H521.6L520.371,0h-3.6l6.234-16.934h4.3L533.543,0Zm-7.312-6.434h5.051l-2.52-7.184ZM541.711.234a8.181,8.181,0,0,1-4.7-1.295,5.193,5.193,0,0,1-2.285-3.627l3.633-.832a3.085,3.085,0,0,0,1.119,2.139,3.714,3.714,0,0,0,2.373.744,3.065,3.065,0,0,0,1.852-.521,1.759,1.759,0,0,0,.7-1.541,1.643,1.643,0,0,0-.6-1.254,3.905,3.905,0,0,0-1.189-.768q-.592-.229-1.9-.627-.176-.059-.258-.082-.668-.211-1.078-.352t-1.014-.393a6.75,6.75,0,0,1-.984-.492,7.207,7.207,0,0,1-.814-.609,3.192,3.192,0,0,1-.68-.779,4.14,4.14,0,0,1-.41-.973,4.293,4.293,0,0,1-.164-1.207A4.533,4.533,0,0,1,536.1-14.9a4.845,4.845,0,0,1,2.133-1.7,7.763,7.763,0,0,1,3.053-.568,9.643,9.643,0,0,1,2.209.246,7.737,7.737,0,0,1,1.975.756,4.837,4.837,0,0,1,1.576,1.395,5.244,5.244,0,0,1,.9,2.057l-3.4.844A2.753,2.753,0,0,0,541.5-14.3a3.336,3.336,0,0,0-1.887.492,1.668,1.668,0,0,0-.738,1.488q0,.926,1.23,1.5a18.336,18.336,0,0,0,2.355.809q.691.211,1.125.352t1.09.41a7.573,7.573,0,0,1,1.066.521,7.891,7.891,0,0,1,.891.65,3.5,3.5,0,0,1,.756.844,4.562,4.562,0,0,1,.463,1.049,4.383,4.383,0,0,1,.188,1.307,5.134,5.134,0,0,1-.34,1.91,4.157,4.157,0,0,1-.932,1.441,5.41,5.41,0,0,1-1.4.99,6.794,6.794,0,0,1-1.723.586A9.908,9.908,0,0,1,541.711.234ZM568.852,0l-1.23-3.492h-7.113L559.277,0h-3.6l6.234-16.934h4.3L572.449,0Zm-7.312-6.434h5.051l-2.52-7.184ZM581.473.234a9.156,9.156,0,0,1-3.381-.615,7.926,7.926,0,0,1-2.7-1.729,7.765,7.765,0,0,1-1.77-2.742,9.71,9.71,0,0,1-.639-3.574,9.68,9.68,0,0,1,.656-3.615,7.868,7.868,0,0,1,1.8-2.766,8.07,8.07,0,0,1,2.748-1.74,9.452,9.452,0,0,1,3.451-.621,9.228,9.228,0,0,1,4.4,1.037,7.542,7.542,0,0,1,3.053,2.947l-3.082,1.641a4.518,4.518,0,0,0-1.787-1.922,5.125,5.125,0,0,0-2.584-.645,4.91,4.91,0,0,0-3.7,1.488,5.678,5.678,0,0,0-1.436,4.113,5.854,5.854,0,0,0,1.43,4.137,4.966,4.966,0,0,0,3.832,1.547,5.663,5.663,0,0,0,2.063-.363,4.114,4.114,0,0,0,1.641-1.178,4.266,4.266,0,0,0,.938-2.01h-4.629V-9.2h7.957V0H586.98V-2.344A6.178,6.178,0,0,1,581.473.234ZM602.332,0l-4.406-7.453h-1.02V0h-3.516V-16.934h6.141a7.1,7.1,0,0,1,2.461.393,4.255,4.255,0,0,1,1.705,1.09,4.667,4.667,0,0,1,.961,1.6,5.851,5.851,0,0,1,.322,1.98,4.135,4.135,0,0,1-.926,2.783,4.665,4.665,0,0,1-2.66,1.459L606.492,0Zm-5.426-14.016v4.043h2.074q2.637,0,2.637-2.016a1.835,1.835,0,0,0-.645-1.488,3.065,3.065,0,0,0-1.992-.539ZM616.137.234a9.2,9.2,0,0,1-4.447-1.061A7.688,7.688,0,0,1,608.6-3.879a9.181,9.181,0,0,1-1.125-4.594,9.172,9.172,0,0,1,1.125-4.6,7.659,7.659,0,0,1,3.088-3.041,9.246,9.246,0,0,1,4.447-1.055,9.212,9.212,0,0,1,4.441,1.055,7.669,7.669,0,0,1,3.082,3.041,9.172,9.172,0,0,1,1.125,4.6,9.181,9.181,0,0,1-1.125,4.594,7.688,7.688,0,0,1-3.088,3.053A9.18,9.18,0,0,1,616.137.234Zm-3.7-4.705a4.963,4.963,0,0,0,3.7,1.482,4.963,4.963,0,0,0,3.7-1.482,5.47,5.47,0,0,0,1.453-4,5.433,5.433,0,0,0-1.453-3.984,4.974,4.974,0,0,0-3.7-1.477,4.974,4.974,0,0,0-3.7,1.477,5.433,5.433,0,0,0-1.453,3.984A5.47,5.47,0,0,0,612.434-4.471Zm22.629-12.463a5.1,5.1,0,0,1,3.9,1.576,5.483,5.483,0,0,1,1.477,3.9,5.348,5.348,0,0,1-1.465,3.873,5.189,5.189,0,0,1-3.914,1.518h-3.527V0H628.02V-16.934Zm-.586,7.922a2.584,2.584,0,0,0,1.934-.662,2.518,2.518,0,0,0,.645-1.834,2.5,2.5,0,0,0-.65-1.811,2.56,2.56,0,0,0-1.928-.674h-2.941v4.98Zm18.738-4.828h-6.281V-10H652.5v3.059h-5.566v3.832h6.281V0h-9.82V-16.934h9.82ZM663.691.234a9.452,9.452,0,0,1-3.451-.621,8.116,8.116,0,0,1-2.748-1.734,7.818,7.818,0,0,1-1.8-2.754,9.6,9.6,0,0,1-.656-3.6,9.172,9.172,0,0,1,1.125-4.6,7.659,7.659,0,0,1,3.088-3.041,9.246,9.246,0,0,1,4.447-1.055A8.986,8.986,0,0,1,668.66-15.8a7.506,7.506,0,0,1,3.035,3.773l-3.281,1.2a4.639,4.639,0,0,0-1.816-2.285,5.188,5.188,0,0,0-2.906-.82,4.974,4.974,0,0,0-3.7,1.477,5.433,5.433,0,0,0-1.453,3.984,5.441,5.441,0,0,0,1.459,3.99A4.968,4.968,0,0,0,663.691-3a5.169,5.169,0,0,0,2.9-.826,4.66,4.66,0,0,0,1.822-2.291l3.281,1.2a7.536,7.536,0,0,1-3.035,3.779A8.957,8.957,0,0,1,663.691.234Zm17.156,0a8.763,8.763,0,0,1-2.607-.369,6.137,6.137,0,0,1-2.092-1.107,4.956,4.956,0,0,1-1.412-1.934,6.968,6.968,0,0,1-.51-2.754v-11h3.516V-6.41a3.681,3.681,0,0,0,.85,2.684,3.038,3.038,0,0,0,2.256.855,3.066,3.066,0,0,0,2.268-.861,3.652,3.652,0,0,0,.861-2.678V-16.934h3.516v11a6.968,6.968,0,0,1-.51,2.754,4.93,4.93,0,0,1-1.418,1.934,6.2,6.2,0,0,1-2.1,1.107A8.805,8.805,0,0,1,680.848.234ZM702.492,0l-1.23-3.492h-7.113L692.918,0h-3.6l6.234-16.934h4.3L706.09,0ZM695.18-6.434h5.051l-2.52-7.184ZM717.574,0l-4.406-7.453h-1.02V0h-3.516V-16.934h6.141a7.1,7.1,0,0,1,2.461.393,4.255,4.255,0,0,1,1.705,1.09,4.667,4.667,0,0,1,.961,1.6,5.851,5.851,0,0,1,.322,1.98,4.135,4.135,0,0,1-.926,2.783,4.665,4.665,0,0,1-2.66,1.459L721.734,0Zm-5.426-14.016v4.043h2.074q2.637,0,2.637-2.016a1.835,1.835,0,0,0-.645-1.488,3.065,3.065,0,0,0-1.992-.539ZM724.313,0V-16.934h3.516V0Zm19.219,0L742.3-3.492h-7.113L733.957,0h-3.6l6.234-16.934h4.3L747.129,0Zm-7.312-6.434h5.051l-2.52-7.184ZM755.3.234a8.181,8.181,0,0,1-4.7-1.295,5.193,5.193,0,0,1-2.285-3.627l3.633-.832a3.085,3.085,0,0,0,1.119,2.139,3.714,3.714,0,0,0,2.373.744,3.065,3.065,0,0,0,1.852-.521,1.759,1.759,0,0,0,.7-1.541,1.643,1.643,0,0,0-.6-1.254,3.905,3.905,0,0,0-1.189-.768q-.592-.229-1.9-.627-.176-.059-.258-.082-.668-.211-1.078-.352t-1.014-.393a6.75,6.75,0,0,1-.984-.492,7.207,7.207,0,0,1-.814-.609,3.192,3.192,0,0,1-.68-.779,4.14,4.14,0,0,1-.41-.973,4.293,4.293,0,0,1-.164-1.207,4.533,4.533,0,0,1,.791-2.666,4.845,4.845,0,0,1,2.133-1.7,7.763,7.763,0,0,1,3.053-.568,9.643,9.643,0,0,1,2.209.246,7.737,7.737,0,0,1,1.975.756,4.837,4.837,0,0,1,1.576,1.395,5.244,5.244,0,0,1,.9,2.057l-3.4.844a2.753,2.753,0,0,0-3.047-2.426,3.336,3.336,0,0,0-1.887.492,1.668,1.668,0,0,0-.738,1.488q0,.926,1.23,1.5a18.336,18.336,0,0,0,2.355.809q.691.211,1.125.352t1.09.41a7.573,7.573,0,0,1,1.066.521,7.891,7.891,0,0,1,.891.65,3.5,3.5,0,0,1,.756.844,4.562,4.562,0,0,1,.463,1.049,4.383,4.383,0,0,1,.188,1.307,5.134,5.134,0,0,1-.34,1.91,4.157,4.157,0,0,1-.932,1.441,5.41,5.41,0,0,1-1.4.99,6.794,6.794,0,0,1-1.723.586A9.908,9.908,0,0,1,755.3.234Z" transform="translate(578.5 2408)" fill="#00223d"/>
    <g id="Grupo_32537" data-name="Grupo 32537" transform="translate(0 1151)">
      <line id="Línea_539" data-name="Línea 539" x1="921" transform="translate(499.5 1542.75)" fill="none" stroke="#ff8f00" stroke-width="3"/>
      <g id="Grupo_29619" data-name="Grupo 29619" transform="translate(-7 -603)">
        <g id="Grupo_28176" data-name="Grupo 28176" transform="translate(7 588)">
          <g id="Grupo_12457" data-name="Grupo 12457" transform="translate(153 -34)">
            <path id="Trazado_49563" data-name="Trazado 49563" d="M0,0H285.58V378H0Z" transform="translate(342 1425)" fill="#cddc39"/>
            <path id="Trazado_56402" data-name="Trazado 56402" d="M0,0H288.1V378H0Z" transform="translate(662.949 1425)" fill="#cddc39"/>
            <path id="Trazado_56404" data-name="Trazado 56404" d="M0,0H288.1V52H0Z" transform="translate(662.949 1363)" fill="#7cb342"/>
            <path id="Trazado_68658" data-name="Trazado 68658" d="M0,0H288.1V378H0Z" transform="translate(982.898 1425)" fill="#cddc39"/>
            <path id="Trazado_68659" data-name="Trazado 68659" d="M0,0H288.1V52H0Z" transform="translate(982.898 1363)" fill="#7cb342"/>
            <path id="Trazado_68660" data-name="Trazado 68660" d="M0,0H286.051V52H0Z" transform="translate(342 1363)" fill="#7cb342"/>
          </g>
        </g>
      </g>
      <text id="PRODUCCIÓN" transform="translate(554 1350)" fill="#fff" font-size="24" font-family="CerebriSans-Bold, Cerebri Sans" font-weight="700"><tspan x="0" y="0">PRODUCCIÓN</tspan></text>
      <text id="MERCADEO" transform="translate(891.5 1350)" fill="#fff" font-size="24" font-family="CerebriSans-Bold, Cerebri Sans" font-weight="700"><tspan x="0" y="0">MERCADEO</tspan></text>
      <text id="FINANZAS" transform="translate(1224 1350)" fill="#fff" font-size="24" font-family="CerebriSans-Bold, Cerebri Sans" font-weight="700"><tspan x="0" y="0">FINANZAS</tspan></text>
      <text id="El_área_de_responsabilidad_más_obvia_del_administrador_de_empresas_agrícolas_en_la_relacionada_con_el_proceso_de_producción." data-name="El área de responsabilidad más obvia del administrador de empresas agrícolas en la relacionada con el proceso de producción." transform="translate(526.5 1448)" fill="#00223d" font-size="18" font-family="CerebriSans-Book, Cerebri Sans"><tspan x="0" y="17">El área de responsabilidad </tspan><tspan x="0" y="45">más obvia del </tspan><tspan x="0" y="73">administrador de empresas </tspan><tspan x="0" y="101">agrícolas en la relacionada </tspan><tspan x="0" y="129">con el proceso de </tspan><tspan x="0" y="157">producción.</tspan></text>
      <text id="La_necesidad_de_contar_con_datos_sobre_precios_y_costos_con_el_fin_de_tomar_decisiones_administrativas_más_racionales_enfatiza_la_necesidad_de_experiencia_y_conocimiento_en_cuanto_se_refiere_al_segundo_campo_de_la_administración_de_empresas_agropecuarias_" data-name="La necesidad de contar con datos sobre precios y costos con el fin de tomar decisiones administrativas más racionales, enfatiza la necesidad de experiencia y conocimiento en cuanto se refiere al segundo campo de la administración de empresas agropecuarias," transform="translate(848.5 1398)" fill="#00223d" font-size="18" font-family="CerebriSans-Book, Cerebri Sans"><tspan x="0" y="17">La necesidad de contar </tspan><tspan x="0" y="45">con datos sobre precios y </tspan><tspan x="0" y="73">costos con el fin de tomar </tspan><tspan x="0" y="101">decisiones administrativas </tspan><tspan x="0" y="129">más racionales, enfatiza la </tspan><tspan x="0" y="157">necesidad de experiencia </tspan><tspan x="0" y="185">y conocimiento en cuanto </tspan><tspan x="0" y="213">se refiere al segundo </tspan><tspan x="0" y="241">campo de la </tspan><tspan x="0" y="269">administración de </tspan><tspan x="0" y="297">empresas agropecuarias, </tspan><tspan x="0" y="325">el mercadeo.</tspan></text>
      <text id="Además_de_la_información_sobre_eficiencia_de_la_producción_y_de_las_relaciones_de_precios_y_de_mercado_debe_disponerse_de_datos_sobre_disponibilidad_de_recursos_para_efectuar_un_adecuado_análisis_de_la_administración_de_la_empresa_agropecuaria." data-name="Además de la información sobre eficiencia de la producción y de las relaciones de precios y de mercado, debe disponerse de datos sobre disponibilidad de recursos para efectuar un adecuado análisis de la administración de la empresa agropecuaria." transform="translate(1174.5 1398)" fill="#00223d" font-size="18" font-family="CerebriSans-Book, Cerebri Sans"><tspan x="0" y="17">Además de la información </tspan><tspan x="0" y="45">sobre eficiencia de la </tspan><tspan x="0" y="73">producción y de las </tspan><tspan x="0" y="101">relaciones de precios y de </tspan><tspan x="0" y="129">mercado, debe disponerse </tspan><tspan x="0" y="157">de datos sobre </tspan><tspan x="0" y="185">disponibilidad de recursos </tspan><tspan x="0" y="213">para efectuar un adecuado </tspan><tspan x="0" y="241">análisis de la </tspan><tspan x="0" y="269">administración de la </tspan><tspan x="0" y="297">empresa agropecuaria.</tspan></text>
    </g>
  </g>
</svg>
